G04 #@! TF.GenerationSoftware,KiCad,Pcbnew,(5.1.7)-1*
G04 #@! TF.CreationDate,2021-10-31T20:58:24-07:00*
G04 #@! TF.ProjectId,tiny_trollerV2,74696e79-5f74-4726-9f6c-6c657256322e,rev?*
G04 #@! TF.SameCoordinates,Original*
G04 #@! TF.FileFunction,Soldermask,Bot*
G04 #@! TF.FilePolarity,Negative*
%FSLAX46Y46*%
G04 Gerber Fmt 4.6, Leading zero omitted, Abs format (unit mm)*
G04 Created by KiCad (PCBNEW (5.1.7)-1) date 2021-10-31 20:58:24*
%MOMM*%
%LPD*%
G01*
G04 APERTURE LIST*
%ADD10C,1.000000*%
%ADD11R,0.254000X0.711200*%
%ADD12R,0.711200X0.254000*%
%ADD13R,1.701800X1.701800*%
%ADD14R,0.757199X0.254800*%
%ADD15R,1.803400X2.590800*%
G04 APERTURE END LIST*
G36*
G01*
X160057500Y-107091300D02*
X160057500Y-106751300D01*
G75*
G02*
X160197500Y-106611300I140000J0D01*
G01*
X160477500Y-106611300D01*
G75*
G02*
X160617500Y-106751300I0J-140000D01*
G01*
X160617500Y-107091300D01*
G75*
G02*
X160477500Y-107231300I-140000J0D01*
G01*
X160197500Y-107231300D01*
G75*
G02*
X160057500Y-107091300I0J140000D01*
G01*
G37*
G36*
G01*
X159097500Y-107091300D02*
X159097500Y-106751300D01*
G75*
G02*
X159237500Y-106611300I140000J0D01*
G01*
X159517500Y-106611300D01*
G75*
G02*
X159657500Y-106751300I0J-140000D01*
G01*
X159657500Y-107091300D01*
G75*
G02*
X159517500Y-107231300I-140000J0D01*
G01*
X159237500Y-107231300D01*
G75*
G02*
X159097500Y-107091300I0J140000D01*
G01*
G37*
D10*
X167090000Y-108300000D03*
G36*
G01*
X159185720Y-101622826D02*
X159433892Y-101862483D01*
G75*
G02*
X159437533Y-102071048I-102462J-106103D01*
G01*
X159232609Y-102283253D01*
G75*
G02*
X159024044Y-102286894I-106103J102462D01*
G01*
X158775872Y-102047237D01*
G75*
G02*
X158772231Y-101838672I102462J106103D01*
G01*
X158977155Y-101626467D01*
G75*
G02*
X159185720Y-101622826I106103J-102462D01*
G01*
G37*
G36*
G01*
X159859538Y-100925066D02*
X160107710Y-101164723D01*
G75*
G02*
X160111351Y-101373288I-102462J-106103D01*
G01*
X159906427Y-101585493D01*
G75*
G02*
X159697862Y-101589134I-106103J102462D01*
G01*
X159449690Y-101349477D01*
G75*
G02*
X159446049Y-101140912I102462J106103D01*
G01*
X159650973Y-100928707D01*
G75*
G02*
X159859538Y-100925066I106103J-102462D01*
G01*
G37*
G36*
G01*
X159659100Y-108125900D02*
X159314100Y-108125900D01*
G75*
G02*
X159166600Y-107978400I0J147500D01*
G01*
X159166600Y-107683400D01*
G75*
G02*
X159314100Y-107535900I147500J0D01*
G01*
X159659100Y-107535900D01*
G75*
G02*
X159806600Y-107683400I0J-147500D01*
G01*
X159806600Y-107978400D01*
G75*
G02*
X159659100Y-108125900I-147500J0D01*
G01*
G37*
G36*
G01*
X159659100Y-109095900D02*
X159314100Y-109095900D01*
G75*
G02*
X159166600Y-108948400I0J147500D01*
G01*
X159166600Y-108653400D01*
G75*
G02*
X159314100Y-108505900I147500J0D01*
G01*
X159659100Y-108505900D01*
G75*
G02*
X159806600Y-108653400I0J-147500D01*
G01*
X159806600Y-108948400D01*
G75*
G02*
X159659100Y-109095900I-147500J0D01*
G01*
G37*
G36*
G01*
X165651040Y-108689376D02*
X165410624Y-108448960D01*
G75*
G02*
X165410624Y-108250970I98995J98995D01*
G01*
X165608614Y-108052980D01*
G75*
G02*
X165806604Y-108052980I98995J-98995D01*
G01*
X166047020Y-108293396D01*
G75*
G02*
X166047020Y-108491386I-98995J-98995D01*
G01*
X165849030Y-108689376D01*
G75*
G02*
X165651040Y-108689376I-98995J98995D01*
G01*
G37*
G36*
G01*
X164972218Y-109368198D02*
X164731802Y-109127782D01*
G75*
G02*
X164731802Y-108929792I98995J98995D01*
G01*
X164929792Y-108731802D01*
G75*
G02*
X165127782Y-108731802I98995J-98995D01*
G01*
X165368198Y-108972218D01*
G75*
G02*
X165368198Y-109170208I-98995J-98995D01*
G01*
X165170208Y-109368198D01*
G75*
G02*
X164972218Y-109368198I-98995J98995D01*
G01*
G37*
X158432500Y-103301800D03*
G36*
G01*
X160717709Y-109275080D02*
X160456080Y-109536709D01*
G75*
G02*
X160265162Y-109536709I-95459J95459D01*
G01*
X160074243Y-109345790D01*
G75*
G02*
X160074243Y-109154872I95459J95459D01*
G01*
X160335872Y-108893243D01*
G75*
G02*
X160526790Y-108893243I95459J-95459D01*
G01*
X160717709Y-109084162D01*
G75*
G02*
X160717709Y-109275080I-95459J-95459D01*
G01*
G37*
G36*
G01*
X161438957Y-109996328D02*
X161177328Y-110257957D01*
G75*
G02*
X160986410Y-110257957I-95459J95459D01*
G01*
X160795491Y-110067038D01*
G75*
G02*
X160795491Y-109876120I95459J95459D01*
G01*
X161057120Y-109614491D01*
G75*
G02*
X161248038Y-109614491I95459J-95459D01*
G01*
X161438957Y-109805410D01*
G75*
G02*
X161438957Y-109996328I-95459J-95459D01*
G01*
G37*
X167779700Y-103238300D03*
G36*
G01*
X161360385Y-108584256D02*
X161098756Y-108845885D01*
G75*
G02*
X160907838Y-108845885I-95459J95459D01*
G01*
X160716919Y-108654966D01*
G75*
G02*
X160716919Y-108464048I95459J95459D01*
G01*
X160978548Y-108202419D01*
G75*
G02*
X161169466Y-108202419I95459J-95459D01*
G01*
X161360385Y-108393338D01*
G75*
G02*
X161360385Y-108584256I-95459J-95459D01*
G01*
G37*
G36*
G01*
X162081633Y-109305504D02*
X161820004Y-109567133D01*
G75*
G02*
X161629086Y-109567133I-95459J95459D01*
G01*
X161438167Y-109376214D01*
G75*
G02*
X161438167Y-109185296I95459J95459D01*
G01*
X161699796Y-108923667D01*
G75*
G02*
X161890714Y-108923667I95459J-95459D01*
G01*
X162081633Y-109114586D01*
G75*
G02*
X162081633Y-109305504I-95459J-95459D01*
G01*
G37*
G36*
G01*
X166882900Y-102126500D02*
X166542900Y-102126500D01*
G75*
G02*
X166402900Y-101986500I0J140000D01*
G01*
X166402900Y-101706500D01*
G75*
G02*
X166542900Y-101566500I140000J0D01*
G01*
X166882900Y-101566500D01*
G75*
G02*
X167022900Y-101706500I0J-140000D01*
G01*
X167022900Y-101986500D01*
G75*
G02*
X166882900Y-102126500I-140000J0D01*
G01*
G37*
G36*
G01*
X166882900Y-103086500D02*
X166542900Y-103086500D01*
G75*
G02*
X166402900Y-102946500I0J140000D01*
G01*
X166402900Y-102666500D01*
G75*
G02*
X166542900Y-102526500I140000J0D01*
G01*
X166882900Y-102526500D01*
G75*
G02*
X167022900Y-102666500I0J-140000D01*
G01*
X167022900Y-102946500D01*
G75*
G02*
X166882900Y-103086500I-140000J0D01*
G01*
G37*
D11*
X162406899Y-103515500D03*
X162906900Y-103515500D03*
X163406900Y-103515500D03*
X163906901Y-103515500D03*
D12*
X164606900Y-104215499D03*
X164606900Y-104715500D03*
X164606900Y-105215500D03*
X164606900Y-105715501D03*
D11*
X163906901Y-106415500D03*
X163406900Y-106415500D03*
X162906900Y-106415500D03*
X162406899Y-106415500D03*
D12*
X161706900Y-105715501D03*
X161706900Y-105215500D03*
X161706900Y-104715500D03*
X161706900Y-104215499D03*
D13*
X163156900Y-104965500D03*
G36*
G01*
X160380900Y-104873700D02*
X160725900Y-104873700D01*
G75*
G02*
X160873400Y-105021200I0J-147500D01*
G01*
X160873400Y-105316200D01*
G75*
G02*
X160725900Y-105463700I-147500J0D01*
G01*
X160380900Y-105463700D01*
G75*
G02*
X160233400Y-105316200I0J147500D01*
G01*
X160233400Y-105021200D01*
G75*
G02*
X160380900Y-104873700I147500J0D01*
G01*
G37*
G36*
G01*
X160380900Y-103903700D02*
X160725900Y-103903700D01*
G75*
G02*
X160873400Y-104051200I0J-147500D01*
G01*
X160873400Y-104346200D01*
G75*
G02*
X160725900Y-104493700I-147500J0D01*
G01*
X160380900Y-104493700D01*
G75*
G02*
X160233400Y-104346200I0J147500D01*
G01*
X160233400Y-104051200D01*
G75*
G02*
X160380900Y-103903700I147500J0D01*
G01*
G37*
D14*
X161660700Y-102608700D03*
X161660700Y-102108701D03*
X161660700Y-101608700D03*
X161660700Y-101108700D03*
X161660700Y-100608699D03*
X161660700Y-100108700D03*
X164602300Y-100108700D03*
X164602300Y-100608699D03*
X164602300Y-101108700D03*
X164602300Y-101608700D03*
X164602300Y-102108701D03*
X164602300Y-102608700D03*
D15*
X163131500Y-101358700D03*
D10*
X162953700Y-110134400D03*
X164460000Y-109990000D03*
X167817800Y-107124500D03*
G36*
G01*
X166262218Y-109398198D02*
X166021802Y-109157782D01*
G75*
G02*
X166021802Y-108959792I98995J98995D01*
G01*
X166219792Y-108761802D01*
G75*
G02*
X166417782Y-108761802I98995J-98995D01*
G01*
X166658198Y-109002218D01*
G75*
G02*
X166658198Y-109200208I-98995J-98995D01*
G01*
X166460208Y-109398198D01*
G75*
G02*
X166262218Y-109398198I-98995J98995D01*
G01*
G37*
G36*
G01*
X165583396Y-110077020D02*
X165342980Y-109836604D01*
G75*
G02*
X165342980Y-109638614I98995J98995D01*
G01*
X165540970Y-109440624D01*
G75*
G02*
X165738960Y-109440624I98995J-98995D01*
G01*
X165979376Y-109681040D01*
G75*
G02*
X165979376Y-109879030I-98995J-98995D01*
G01*
X165781386Y-110077020D01*
G75*
G02*
X165583396Y-110077020I-98995J98995D01*
G01*
G37*
M02*
