G04 #@! TF.GenerationSoftware,KiCad,Pcbnew,(5.1.7)-1*
G04 #@! TF.CreationDate,2021-10-31T20:58:24-07:00*
G04 #@! TF.ProjectId,tiny_trollerV2,74696e79-5f74-4726-9f6c-6c657256322e,rev?*
G04 #@! TF.SameCoordinates,Original*
G04 #@! TF.FileFunction,Legend,Bot*
G04 #@! TF.FilePolarity,Positive*
%FSLAX46Y46*%
G04 Gerber Fmt 4.6, Leading zero omitted, Abs format (unit mm)*
G04 Created by KiCad (PCBNEW (5.1.7)-1) date 2021-10-31 20:58:24*
%MOMM*%
%LPD*%
G01*
G04 APERTURE LIST*
%ADD10C,0.100000*%
%ADD11C,0.120000*%
%ADD12C,0.050000*%
G04 APERTURE END LIST*
D10*
X165770937Y-107733571D02*
X165668258Y-107769285D01*
X165489687Y-107769285D01*
X165413794Y-107733571D01*
X165373616Y-107697857D01*
X165328973Y-107626428D01*
X165320044Y-107555000D01*
X165346830Y-107483571D01*
X165378080Y-107447857D01*
X165445044Y-107412142D01*
X165583437Y-107376428D01*
X165650401Y-107340714D01*
X165681651Y-107305000D01*
X165708437Y-107233571D01*
X165699508Y-107162142D01*
X165654866Y-107090714D01*
X165614687Y-107055000D01*
X165538794Y-107019285D01*
X165360223Y-107019285D01*
X165257544Y-107055000D01*
X165025401Y-107769285D02*
X164931651Y-107019285D01*
X164659330Y-107697857D02*
X164628080Y-107733571D01*
X164668258Y-107769285D01*
X164699508Y-107733571D01*
X164659330Y-107697857D01*
X164668258Y-107769285D01*
X158538876Y-107878797D02*
X158508493Y-107869978D01*
X158498234Y-107904316D01*
X158528618Y-107913136D01*
X158538876Y-107878797D01*
X158498234Y-107904316D01*
X158784102Y-107334260D02*
X158763977Y-107291103D01*
X158723531Y-107260705D01*
X158693148Y-107251886D01*
X158642444Y-107255827D01*
X158551098Y-107285287D01*
X158449493Y-107349085D01*
X158378271Y-107421703D01*
X158347692Y-107468801D01*
X158337433Y-107503139D01*
X158337237Y-107559056D01*
X158357362Y-107602214D01*
X158397807Y-107632612D01*
X158428191Y-107641431D01*
X158478895Y-107637490D01*
X158570241Y-107608030D01*
X158671846Y-107544232D01*
X158743067Y-107471614D01*
X158773647Y-107424516D01*
X158783906Y-107390178D01*
X158784102Y-107334260D01*
X158582855Y-106902685D02*
X158562730Y-106859528D01*
X158522285Y-106829130D01*
X158491901Y-106820311D01*
X158441197Y-106824252D01*
X158349851Y-106853712D01*
X158248246Y-106917510D01*
X158177025Y-106990127D01*
X158146445Y-107037226D01*
X158136186Y-107071564D01*
X158135990Y-107127481D01*
X158156115Y-107170639D01*
X158196560Y-107201037D01*
X158226944Y-107209856D01*
X158277648Y-107205915D01*
X158368994Y-107176455D01*
X158470599Y-107112657D01*
X158541821Y-107040039D01*
X158572400Y-106992941D01*
X158582659Y-106958603D01*
X158582855Y-106902685D01*
X159410423Y-103685185D02*
X159791376Y-103685185D01*
X159600900Y-103494709D02*
X159600900Y-103875661D01*
X166560523Y-103723285D02*
X166941476Y-103723285D01*
D11*
X159749664Y-107281300D02*
X159965336Y-107281300D01*
X159749664Y-106561300D02*
X159965336Y-106561300D01*
X167790000Y-108300000D02*
G75*
G03*
X167790000Y-108300000I-700000J0D01*
G01*
X160248969Y-100821900D02*
G75*
G03*
X160248969Y-100821900I-50000J0D01*
G01*
D10*
X159536600Y-109405900D02*
G75*
G03*
X159536600Y-109405900I-50000J0D01*
G01*
D11*
X165567718Y-109041399D02*
X165720221Y-108888896D01*
X165058601Y-108532282D02*
X165211104Y-108379779D01*
X159132500Y-103301800D02*
G75*
G03*
X159132500Y-103301800I-700000J0D01*
G01*
X161133941Y-109415540D02*
X160916660Y-109198259D01*
X160596540Y-109952941D02*
X160379259Y-109735660D01*
X168479700Y-103238300D02*
G75*
G03*
X168479700Y-103238300I-700000J0D01*
G01*
X161776617Y-108724716D02*
X161559336Y-108507435D01*
X161239216Y-109262117D02*
X161021935Y-109044836D01*
X167072900Y-102434336D02*
X167072900Y-102218664D01*
X166352900Y-102434336D02*
X166352900Y-102218664D01*
X161480500Y-103755759D02*
X161480500Y-103289100D01*
X161947159Y-106641900D02*
X161480500Y-106641900D01*
X164833300Y-106175241D02*
X164833300Y-106641900D01*
X164366641Y-103289100D02*
X164833300Y-103289100D01*
X161480500Y-103289100D02*
X161947159Y-103289100D01*
X161480500Y-106641900D02*
X161480500Y-106175241D01*
X164833300Y-106641900D02*
X164366641Y-106641900D01*
X164833300Y-103289100D02*
X164833300Y-103755759D01*
X160603400Y-103593700D02*
G75*
G03*
X160603400Y-103593700I-50000J0D01*
G01*
X162185296Y-99682300D02*
X164077704Y-99682300D01*
X164077704Y-103035100D02*
X162185296Y-103035100D01*
X163653700Y-110134400D02*
G75*
G03*
X163653700Y-110134400I-700000J0D01*
G01*
X165160000Y-109990000D02*
G75*
G03*
X165160000Y-109990000I-700000J0D01*
G01*
X168517800Y-107124500D02*
G75*
G03*
X168517800Y-107124500I-700000J0D01*
G01*
X166178896Y-109750221D02*
X166331399Y-109597718D01*
X165669779Y-109241104D02*
X165822282Y-109088601D01*
D12*
X161622995Y-103022400D02*
X161682519Y-103022400D01*
X161658709Y-102962876D02*
X161682519Y-103022400D01*
X161658709Y-103081923D01*
X161730138Y-102986685D02*
X161682519Y-103022400D01*
X161730138Y-103058114D01*
M02*
