G04 #@! TF.GenerationSoftware,KiCad,Pcbnew,(5.1.7)-1*
G04 #@! TF.CreationDate,2021-10-31T20:58:24-07:00*
G04 #@! TF.ProjectId,tiny_trollerV2,74696e79-5f74-4726-9f6c-6c657256322e,rev?*
G04 #@! TF.SameCoordinates,Original*
G04 #@! TF.FileFunction,Copper,L4,Bot*
G04 #@! TF.FilePolarity,Positive*
%FSLAX46Y46*%
G04 Gerber Fmt 4.6, Leading zero omitted, Abs format (unit mm)*
G04 Created by KiCad (PCBNEW (5.1.7)-1) date 2021-10-31 20:58:24*
%MOMM*%
%LPD*%
G01*
G04 APERTURE LIST*
G04 #@! TA.AperFunction,SMDPad,CuDef*
%ADD10C,1.000000*%
G04 #@! TD*
G04 #@! TA.AperFunction,SMDPad,CuDef*
%ADD11R,0.254000X0.711200*%
G04 #@! TD*
G04 #@! TA.AperFunction,SMDPad,CuDef*
%ADD12R,0.711200X0.254000*%
G04 #@! TD*
G04 #@! TA.AperFunction,SMDPad,CuDef*
%ADD13R,1.701800X1.701800*%
G04 #@! TD*
G04 #@! TA.AperFunction,SMDPad,CuDef*
%ADD14R,0.757199X0.254800*%
G04 #@! TD*
G04 #@! TA.AperFunction,SMDPad,CuDef*
%ADD15R,1.803400X2.590800*%
G04 #@! TD*
G04 #@! TA.AperFunction,ViaPad*
%ADD16C,0.600000*%
G04 #@! TD*
G04 #@! TA.AperFunction,Conductor*
%ADD17C,0.152400*%
G04 #@! TD*
G04 APERTURE END LIST*
G04 #@! TA.AperFunction,SMDPad,CuDef*
G36*
G01*
X160057500Y-107091300D02*
X160057500Y-106751300D01*
G75*
G02*
X160197500Y-106611300I140000J0D01*
G01*
X160477500Y-106611300D01*
G75*
G02*
X160617500Y-106751300I0J-140000D01*
G01*
X160617500Y-107091300D01*
G75*
G02*
X160477500Y-107231300I-140000J0D01*
G01*
X160197500Y-107231300D01*
G75*
G02*
X160057500Y-107091300I0J140000D01*
G01*
G37*
G04 #@! TD.AperFunction*
G04 #@! TA.AperFunction,SMDPad,CuDef*
G36*
G01*
X159097500Y-107091300D02*
X159097500Y-106751300D01*
G75*
G02*
X159237500Y-106611300I140000J0D01*
G01*
X159517500Y-106611300D01*
G75*
G02*
X159657500Y-106751300I0J-140000D01*
G01*
X159657500Y-107091300D01*
G75*
G02*
X159517500Y-107231300I-140000J0D01*
G01*
X159237500Y-107231300D01*
G75*
G02*
X159097500Y-107091300I0J140000D01*
G01*
G37*
G04 #@! TD.AperFunction*
D10*
X167090000Y-108300000D03*
G04 #@! TA.AperFunction,SMDPad,CuDef*
G36*
G01*
X159185720Y-101622826D02*
X159433892Y-101862483D01*
G75*
G02*
X159437533Y-102071048I-102462J-106103D01*
G01*
X159232609Y-102283253D01*
G75*
G02*
X159024044Y-102286894I-106103J102462D01*
G01*
X158775872Y-102047237D01*
G75*
G02*
X158772231Y-101838672I102462J106103D01*
G01*
X158977155Y-101626467D01*
G75*
G02*
X159185720Y-101622826I106103J-102462D01*
G01*
G37*
G04 #@! TD.AperFunction*
G04 #@! TA.AperFunction,SMDPad,CuDef*
G36*
G01*
X159859538Y-100925066D02*
X160107710Y-101164723D01*
G75*
G02*
X160111351Y-101373288I-102462J-106103D01*
G01*
X159906427Y-101585493D01*
G75*
G02*
X159697862Y-101589134I-106103J102462D01*
G01*
X159449690Y-101349477D01*
G75*
G02*
X159446049Y-101140912I102462J106103D01*
G01*
X159650973Y-100928707D01*
G75*
G02*
X159859538Y-100925066I106103J-102462D01*
G01*
G37*
G04 #@! TD.AperFunction*
G04 #@! TA.AperFunction,SMDPad,CuDef*
G36*
G01*
X159659100Y-108125900D02*
X159314100Y-108125900D01*
G75*
G02*
X159166600Y-107978400I0J147500D01*
G01*
X159166600Y-107683400D01*
G75*
G02*
X159314100Y-107535900I147500J0D01*
G01*
X159659100Y-107535900D01*
G75*
G02*
X159806600Y-107683400I0J-147500D01*
G01*
X159806600Y-107978400D01*
G75*
G02*
X159659100Y-108125900I-147500J0D01*
G01*
G37*
G04 #@! TD.AperFunction*
G04 #@! TA.AperFunction,SMDPad,CuDef*
G36*
G01*
X159659100Y-109095900D02*
X159314100Y-109095900D01*
G75*
G02*
X159166600Y-108948400I0J147500D01*
G01*
X159166600Y-108653400D01*
G75*
G02*
X159314100Y-108505900I147500J0D01*
G01*
X159659100Y-108505900D01*
G75*
G02*
X159806600Y-108653400I0J-147500D01*
G01*
X159806600Y-108948400D01*
G75*
G02*
X159659100Y-109095900I-147500J0D01*
G01*
G37*
G04 #@! TD.AperFunction*
G04 #@! TA.AperFunction,SMDPad,CuDef*
G36*
G01*
X165651040Y-108689376D02*
X165410624Y-108448960D01*
G75*
G02*
X165410624Y-108250970I98995J98995D01*
G01*
X165608614Y-108052980D01*
G75*
G02*
X165806604Y-108052980I98995J-98995D01*
G01*
X166047020Y-108293396D01*
G75*
G02*
X166047020Y-108491386I-98995J-98995D01*
G01*
X165849030Y-108689376D01*
G75*
G02*
X165651040Y-108689376I-98995J98995D01*
G01*
G37*
G04 #@! TD.AperFunction*
G04 #@! TA.AperFunction,SMDPad,CuDef*
G36*
G01*
X164972218Y-109368198D02*
X164731802Y-109127782D01*
G75*
G02*
X164731802Y-108929792I98995J98995D01*
G01*
X164929792Y-108731802D01*
G75*
G02*
X165127782Y-108731802I98995J-98995D01*
G01*
X165368198Y-108972218D01*
G75*
G02*
X165368198Y-109170208I-98995J-98995D01*
G01*
X165170208Y-109368198D01*
G75*
G02*
X164972218Y-109368198I-98995J98995D01*
G01*
G37*
G04 #@! TD.AperFunction*
X158432500Y-103301800D03*
G04 #@! TA.AperFunction,SMDPad,CuDef*
G36*
G01*
X160717709Y-109275080D02*
X160456080Y-109536709D01*
G75*
G02*
X160265162Y-109536709I-95459J95459D01*
G01*
X160074243Y-109345790D01*
G75*
G02*
X160074243Y-109154872I95459J95459D01*
G01*
X160335872Y-108893243D01*
G75*
G02*
X160526790Y-108893243I95459J-95459D01*
G01*
X160717709Y-109084162D01*
G75*
G02*
X160717709Y-109275080I-95459J-95459D01*
G01*
G37*
G04 #@! TD.AperFunction*
G04 #@! TA.AperFunction,SMDPad,CuDef*
G36*
G01*
X161438957Y-109996328D02*
X161177328Y-110257957D01*
G75*
G02*
X160986410Y-110257957I-95459J95459D01*
G01*
X160795491Y-110067038D01*
G75*
G02*
X160795491Y-109876120I95459J95459D01*
G01*
X161057120Y-109614491D01*
G75*
G02*
X161248038Y-109614491I95459J-95459D01*
G01*
X161438957Y-109805410D01*
G75*
G02*
X161438957Y-109996328I-95459J-95459D01*
G01*
G37*
G04 #@! TD.AperFunction*
X167779700Y-103238300D03*
G04 #@! TA.AperFunction,SMDPad,CuDef*
G36*
G01*
X161360385Y-108584256D02*
X161098756Y-108845885D01*
G75*
G02*
X160907838Y-108845885I-95459J95459D01*
G01*
X160716919Y-108654966D01*
G75*
G02*
X160716919Y-108464048I95459J95459D01*
G01*
X160978548Y-108202419D01*
G75*
G02*
X161169466Y-108202419I95459J-95459D01*
G01*
X161360385Y-108393338D01*
G75*
G02*
X161360385Y-108584256I-95459J-95459D01*
G01*
G37*
G04 #@! TD.AperFunction*
G04 #@! TA.AperFunction,SMDPad,CuDef*
G36*
G01*
X162081633Y-109305504D02*
X161820004Y-109567133D01*
G75*
G02*
X161629086Y-109567133I-95459J95459D01*
G01*
X161438167Y-109376214D01*
G75*
G02*
X161438167Y-109185296I95459J95459D01*
G01*
X161699796Y-108923667D01*
G75*
G02*
X161890714Y-108923667I95459J-95459D01*
G01*
X162081633Y-109114586D01*
G75*
G02*
X162081633Y-109305504I-95459J-95459D01*
G01*
G37*
G04 #@! TD.AperFunction*
G04 #@! TA.AperFunction,SMDPad,CuDef*
G36*
G01*
X166882900Y-102126500D02*
X166542900Y-102126500D01*
G75*
G02*
X166402900Y-101986500I0J140000D01*
G01*
X166402900Y-101706500D01*
G75*
G02*
X166542900Y-101566500I140000J0D01*
G01*
X166882900Y-101566500D01*
G75*
G02*
X167022900Y-101706500I0J-140000D01*
G01*
X167022900Y-101986500D01*
G75*
G02*
X166882900Y-102126500I-140000J0D01*
G01*
G37*
G04 #@! TD.AperFunction*
G04 #@! TA.AperFunction,SMDPad,CuDef*
G36*
G01*
X166882900Y-103086500D02*
X166542900Y-103086500D01*
G75*
G02*
X166402900Y-102946500I0J140000D01*
G01*
X166402900Y-102666500D01*
G75*
G02*
X166542900Y-102526500I140000J0D01*
G01*
X166882900Y-102526500D01*
G75*
G02*
X167022900Y-102666500I0J-140000D01*
G01*
X167022900Y-102946500D01*
G75*
G02*
X166882900Y-103086500I-140000J0D01*
G01*
G37*
G04 #@! TD.AperFunction*
D11*
X162406899Y-103515500D03*
X162906900Y-103515500D03*
X163406900Y-103515500D03*
X163906901Y-103515500D03*
D12*
X164606900Y-104215499D03*
X164606900Y-104715500D03*
X164606900Y-105215500D03*
X164606900Y-105715501D03*
D11*
X163906901Y-106415500D03*
X163406900Y-106415500D03*
X162906900Y-106415500D03*
X162406899Y-106415500D03*
D12*
X161706900Y-105715501D03*
X161706900Y-105215500D03*
X161706900Y-104715500D03*
X161706900Y-104215499D03*
D13*
X163156900Y-104965500D03*
G04 #@! TA.AperFunction,SMDPad,CuDef*
G36*
G01*
X160380900Y-104873700D02*
X160725900Y-104873700D01*
G75*
G02*
X160873400Y-105021200I0J-147500D01*
G01*
X160873400Y-105316200D01*
G75*
G02*
X160725900Y-105463700I-147500J0D01*
G01*
X160380900Y-105463700D01*
G75*
G02*
X160233400Y-105316200I0J147500D01*
G01*
X160233400Y-105021200D01*
G75*
G02*
X160380900Y-104873700I147500J0D01*
G01*
G37*
G04 #@! TD.AperFunction*
G04 #@! TA.AperFunction,SMDPad,CuDef*
G36*
G01*
X160380900Y-103903700D02*
X160725900Y-103903700D01*
G75*
G02*
X160873400Y-104051200I0J-147500D01*
G01*
X160873400Y-104346200D01*
G75*
G02*
X160725900Y-104493700I-147500J0D01*
G01*
X160380900Y-104493700D01*
G75*
G02*
X160233400Y-104346200I0J147500D01*
G01*
X160233400Y-104051200D01*
G75*
G02*
X160380900Y-103903700I147500J0D01*
G01*
G37*
G04 #@! TD.AperFunction*
D14*
X161660700Y-102608700D03*
X161660700Y-102108701D03*
X161660700Y-101608700D03*
X161660700Y-101108700D03*
X161660700Y-100608699D03*
X161660700Y-100108700D03*
X164602300Y-100108700D03*
X164602300Y-100608699D03*
X164602300Y-101108700D03*
X164602300Y-101608700D03*
X164602300Y-102108701D03*
X164602300Y-102608700D03*
D15*
X163131500Y-101358700D03*
D10*
X162953700Y-110134400D03*
X164460000Y-109990000D03*
X167817800Y-107124500D03*
G04 #@! TA.AperFunction,SMDPad,CuDef*
G36*
G01*
X166262218Y-109398198D02*
X166021802Y-109157782D01*
G75*
G02*
X166021802Y-108959792I98995J98995D01*
G01*
X166219792Y-108761802D01*
G75*
G02*
X166417782Y-108761802I98995J-98995D01*
G01*
X166658198Y-109002218D01*
G75*
G02*
X166658198Y-109200208I-98995J-98995D01*
G01*
X166460208Y-109398198D01*
G75*
G02*
X166262218Y-109398198I-98995J98995D01*
G01*
G37*
G04 #@! TD.AperFunction*
G04 #@! TA.AperFunction,SMDPad,CuDef*
G36*
G01*
X165583396Y-110077020D02*
X165342980Y-109836604D01*
G75*
G02*
X165342980Y-109638614I98995J98995D01*
G01*
X165540970Y-109440624D01*
G75*
G02*
X165738960Y-109440624I98995J-98995D01*
G01*
X165979376Y-109681040D01*
G75*
G02*
X165979376Y-109879030I-98995J-98995D01*
G01*
X165781386Y-110077020D01*
G75*
G02*
X165583396Y-110077020I-98995J98995D01*
G01*
G37*
G04 #@! TD.AperFunction*
D16*
X163779200Y-102323900D03*
X163779200Y-100838000D03*
X166966900Y-102654100D03*
X167817800Y-107111800D03*
X159499304Y-107851004D03*
X165747700Y-109689900D03*
X166377934Y-101136328D03*
X163011386Y-108168790D03*
X162491712Y-101511464D03*
X163732533Y-104327417D03*
X166107963Y-106685230D03*
X160337500Y-106895900D03*
X161099547Y-109918594D03*
X165770392Y-100685719D03*
X162660367Y-108840233D03*
X165889983Y-102506873D03*
X160359283Y-103065103D03*
X163993129Y-103546192D03*
X165641310Y-106095011D03*
X162448519Y-107223564D03*
X160901496Y-105891011D03*
X164250848Y-108335751D03*
X164460218Y-104136084D03*
X164188308Y-107272209D03*
X163201073Y-107234021D03*
X160220079Y-102318529D03*
X165555532Y-104767507D03*
X163398788Y-109208822D03*
X165920576Y-101755084D03*
X160485047Y-100728490D03*
X162072376Y-108269940D03*
X159651062Y-102810814D03*
X161845563Y-110261824D03*
X161489079Y-107784799D03*
X164666626Y-110205929D03*
X167233600Y-108267500D03*
X160268511Y-107714180D03*
X166014947Y-103687409D03*
X166375637Y-107403182D03*
X163684084Y-107830672D03*
X164859472Y-103406112D03*
X161294746Y-103638964D03*
X159499300Y-108800900D03*
X159778700Y-101257100D03*
X160289729Y-104379574D03*
D17*
X163406900Y-105215500D02*
X163156900Y-104965500D01*
X163406900Y-106415500D02*
X163406900Y-105215500D01*
X163906901Y-105715501D02*
X163156900Y-104965500D01*
X164606900Y-105715501D02*
X163906901Y-105715501D01*
X160395976Y-109166828D02*
X161038652Y-108524152D01*
X160395976Y-109222652D02*
X160395976Y-109166828D01*
X163995100Y-101298419D02*
X163995100Y-101358700D01*
X163995100Y-101358700D02*
X163535968Y-101358700D01*
X164040820Y-101252699D02*
X163995100Y-101298419D01*
X164458301Y-101252699D02*
X164040820Y-101252699D01*
X163535968Y-101358700D02*
X163131500Y-101358700D01*
X164602300Y-101108700D02*
X164458301Y-101252699D01*
X166827200Y-102793800D02*
X166966900Y-102654100D01*
X166712900Y-102793800D02*
X166827200Y-102793800D01*
X161038652Y-108524152D02*
X160172452Y-108524152D01*
X160172452Y-108524152D02*
X159499304Y-107851004D01*
X159377500Y-107721800D02*
X159486600Y-107830900D01*
X163266130Y-110134400D02*
X164428808Y-108971722D01*
X162953700Y-110134400D02*
X163266130Y-110134400D01*
X164428808Y-108971722D02*
X165119678Y-108971722D01*
X165119678Y-108971722D02*
X163986006Y-108971722D01*
X163986006Y-108971722D02*
X163183074Y-108168790D01*
X163183074Y-108168790D02*
X163011386Y-108168790D01*
X159377500Y-106921300D02*
X159377500Y-107721800D01*
X160553400Y-105463700D02*
X160553400Y-105168700D01*
X160208064Y-106001704D02*
X160208064Y-105809036D01*
X159377500Y-106832268D02*
X160208064Y-106001704D01*
X160208064Y-105809036D02*
X160553400Y-105463700D01*
X159377500Y-106921300D02*
X159377500Y-106832268D01*
X165680000Y-109627922D02*
X165738489Y-109686411D01*
X165680000Y-108411400D02*
X165680000Y-109627922D01*
X165798500Y-108292900D02*
X165680000Y-108411400D01*
X165807964Y-106985229D02*
X166107963Y-106685230D01*
X165119678Y-108971722D02*
X165119678Y-107673515D01*
X165119678Y-107673515D02*
X166107963Y-106685230D01*
X160831301Y-106870500D02*
X160210500Y-106870500D01*
X161706900Y-105994901D02*
X160831301Y-106870500D01*
X161706900Y-105715501D02*
X161706900Y-105994901D01*
X165743515Y-107673515D02*
X165119678Y-107673515D01*
X165853365Y-107783365D02*
X165743515Y-107673515D01*
X165860295Y-107783365D02*
X165853365Y-107783365D01*
X166316635Y-108239705D02*
X165860295Y-107783365D01*
X166316635Y-108906913D02*
X166316635Y-108239705D01*
X166417311Y-109007589D02*
X166316635Y-108906913D01*
X164602300Y-100108700D02*
X165070183Y-100108700D01*
X165070183Y-100108700D02*
X165647202Y-100685719D01*
X165647202Y-100685719D02*
X165770392Y-100685719D01*
X161759900Y-109245400D02*
X162255200Y-109245400D01*
X162255200Y-109245400D02*
X162660367Y-108840233D01*
X161660700Y-101608700D02*
X161324535Y-101608700D01*
X165371712Y-102082330D02*
X165795245Y-102505863D01*
X165795245Y-102505863D02*
X165840436Y-102505863D01*
X165371712Y-101847113D02*
X165371712Y-102082330D01*
X165133299Y-101608700D02*
X165371712Y-101847113D01*
X164602300Y-101608700D02*
X165133299Y-101608700D01*
X166712900Y-101884600D02*
X166090627Y-102506873D01*
X166090627Y-102506873D02*
X165889983Y-102506873D01*
X160748689Y-102675697D02*
X160359283Y-103065103D01*
X160748689Y-102172163D02*
X160748689Y-102675697D01*
X161312152Y-101608700D02*
X160748689Y-102172163D01*
X161660700Y-101608700D02*
X161312152Y-101608700D01*
X160084971Y-103339415D02*
X160359283Y-103065103D01*
X159397333Y-103339415D02*
X160084971Y-103339415D01*
X159122461Y-103064543D02*
X159397333Y-103339415D01*
X159122461Y-101972439D02*
X159122461Y-103064543D01*
X159104882Y-101954860D02*
X159122461Y-101972439D01*
X165641310Y-105881310D02*
X165641310Y-106095011D01*
X164975500Y-105215500D02*
X165641310Y-105881310D01*
X164606900Y-105215500D02*
X164975500Y-105215500D01*
X162906900Y-106415500D02*
X162906900Y-106734788D01*
X162448519Y-107193169D02*
X162448519Y-107223564D01*
X162906900Y-106734788D02*
X162448519Y-107193169D01*
X161122699Y-105669808D02*
X161122699Y-104405619D01*
X161122699Y-104405619D02*
X161312819Y-104215499D01*
X160901496Y-105891011D02*
X161122699Y-105669808D01*
X161312819Y-104215499D02*
X161706900Y-104215499D01*
X164539633Y-104215499D02*
X164460218Y-104136084D01*
X164606900Y-104215499D02*
X164539633Y-104215499D01*
X163906901Y-106990802D02*
X164188308Y-107272209D01*
X163906901Y-106415500D02*
X163906901Y-106990802D01*
X163078715Y-107216560D02*
X163183612Y-107216560D01*
X163183612Y-107216560D02*
X163201073Y-107234021D01*
X161919917Y-107469636D02*
X162209781Y-107759500D01*
X162406899Y-106415500D02*
X161919917Y-106902482D01*
X161919917Y-106902482D02*
X161919917Y-107469636D01*
X162209781Y-107759500D02*
X162675594Y-107759500D01*
X162675594Y-107759500D02*
X163201073Y-107234021D01*
X161660700Y-101108700D02*
X161321476Y-101108700D01*
X160220079Y-102210097D02*
X160220079Y-102318529D01*
X161321476Y-101108700D02*
X160220079Y-102210097D01*
X164602300Y-102608700D02*
X164692315Y-102608700D01*
X165486346Y-103282595D02*
X165486346Y-104698321D01*
X165486346Y-104698321D02*
X165555532Y-104767507D01*
X164812451Y-102608700D02*
X165486346Y-103282595D01*
X164602300Y-102608700D02*
X164812451Y-102608700D01*
X161934701Y-102882701D02*
X164328299Y-102882701D01*
X161660700Y-102608700D02*
X161934701Y-102882701D01*
X164328299Y-102882701D02*
X164602300Y-102608700D01*
X165209501Y-101044009D02*
X165920576Y-101755084D01*
X165133299Y-100608699D02*
X165209501Y-100684901D01*
X164602300Y-100608699D02*
X165133299Y-100608699D01*
X165209501Y-100684901D02*
X165209501Y-101044009D01*
X160621416Y-100728490D02*
X160485047Y-100728490D01*
X161241206Y-100108700D02*
X160621416Y-100728490D01*
X161660700Y-100108700D02*
X161241206Y-100108700D01*
X159651062Y-102188105D02*
X159651062Y-102810814D01*
X159707518Y-102047289D02*
X159707518Y-102131649D01*
X159895688Y-101859119D02*
X159707518Y-102047289D01*
X159956106Y-101859119D02*
X159895688Y-101859119D01*
X159707518Y-102131649D02*
X159651062Y-102188105D01*
X160012025Y-101803200D02*
X159956106Y-101859119D01*
X160502600Y-101333300D02*
X160032700Y-101803200D01*
X160662632Y-101333300D02*
X160502600Y-101333300D01*
X160993102Y-101002830D02*
X160662632Y-101333300D01*
X160993102Y-100927750D02*
X160993102Y-101002830D01*
X161312153Y-100608699D02*
X160993102Y-100927750D01*
X160032700Y-101803200D02*
X160012025Y-101803200D01*
X161660700Y-100608699D02*
X161312153Y-100608699D01*
X160553400Y-104059000D02*
X160289729Y-104322671D01*
X160289729Y-104322671D02*
X160289729Y-104379574D01*
X166203905Y-103128799D02*
X166390216Y-103315110D01*
X164954102Y-102108701D02*
X165361382Y-102515981D01*
X165763617Y-103128799D02*
X166203905Y-103128799D01*
X165361382Y-102726564D02*
X165763617Y-103128799D01*
X166390216Y-103315110D02*
X167588590Y-103315110D01*
X165361382Y-102515981D02*
X165361382Y-102726564D01*
X164602300Y-102108701D02*
X164954102Y-102108701D01*
X167588590Y-103315110D02*
X167703500Y-103200200D01*
X161660700Y-102108701D02*
X161243218Y-102108701D01*
X161243218Y-102108701D02*
X161053500Y-102298419D01*
X158777661Y-103646961D02*
X158432500Y-103301800D01*
X161053500Y-102298419D02*
X161053500Y-103118454D01*
X161053500Y-103118454D02*
X160524993Y-103646961D01*
X160524993Y-103646961D02*
X158777661Y-103646961D01*
M02*
