G04 #@! TF.GenerationSoftware,KiCad,Pcbnew,(5.1.7)-1*
G04 #@! TF.CreationDate,2021-10-31T20:58:24-07:00*
G04 #@! TF.ProjectId,tiny_trollerV2,74696e79-5f74-4726-9f6c-6c657256322e,rev?*
G04 #@! TF.SameCoordinates,Original*
G04 #@! TF.FileFunction,Copper,L3,Inr*
G04 #@! TF.FilePolarity,Positive*
%FSLAX46Y46*%
G04 Gerber Fmt 4.6, Leading zero omitted, Abs format (unit mm)*
G04 Created by KiCad (PCBNEW (5.1.7)-1) date 2021-10-31 20:58:24*
%MOMM*%
%LPD*%
G01*
G04 APERTURE LIST*
G04 #@! TA.AperFunction,ViaPad*
%ADD10C,0.600000*%
G04 #@! TD*
G04 #@! TA.AperFunction,Conductor*
%ADD11C,0.152400*%
G04 #@! TD*
G04 #@! TA.AperFunction,Conductor*
%ADD12C,0.254000*%
G04 #@! TD*
G04 #@! TA.AperFunction,Conductor*
%ADD13C,0.150000*%
G04 #@! TD*
G04 APERTURE END LIST*
D10*
X163779200Y-102323900D03*
X163779200Y-100838000D03*
X166966900Y-102654100D03*
X167817800Y-107111800D03*
X159499304Y-107851004D03*
X165747700Y-109689900D03*
X166377934Y-101136328D03*
X163011386Y-108168790D03*
X162491712Y-101511464D03*
X163732533Y-104327417D03*
X166107963Y-106685230D03*
X160337500Y-106895900D03*
X161099547Y-109918594D03*
X165770392Y-100685719D03*
X162660367Y-108840233D03*
X165889983Y-102506873D03*
X160359283Y-103065103D03*
X163993129Y-103546192D03*
X165641310Y-106095011D03*
X162448519Y-107223564D03*
X160901496Y-105891011D03*
X164250848Y-108335751D03*
X164460218Y-104136084D03*
X164188308Y-107272209D03*
X163201073Y-107234021D03*
X160220079Y-102318529D03*
X165555532Y-104767507D03*
X163398788Y-109208822D03*
X165920576Y-101755084D03*
X160485047Y-100728490D03*
X162072376Y-108269940D03*
X159651062Y-102810814D03*
X161845563Y-110261824D03*
X161489079Y-107784799D03*
X164666626Y-110205929D03*
X167233600Y-108267500D03*
X160268511Y-107714180D03*
X166014947Y-103687409D03*
X166375637Y-107403182D03*
X163684084Y-107830672D03*
X164859472Y-103406112D03*
X161294746Y-103638964D03*
X159499300Y-108800900D03*
X159778700Y-101257100D03*
X160289729Y-104379574D03*
D11*
X165991520Y-106867980D02*
X166126330Y-106733170D01*
X166112498Y-106747002D02*
X166126330Y-106733170D01*
X166126330Y-106733170D02*
X166126330Y-106703597D01*
X166126330Y-106703597D02*
X166107963Y-106685230D01*
X166169911Y-106623282D02*
X166107963Y-106685230D01*
X166169911Y-105824695D02*
X166169911Y-106623282D01*
X166093316Y-105620645D02*
X166169911Y-105824695D01*
X166096672Y-105613254D02*
X166093316Y-105620645D01*
X166072760Y-105536989D02*
X166096672Y-105613254D01*
X166383043Y-104236007D02*
X166375095Y-104237662D01*
X167154672Y-103716725D02*
X167147203Y-103713547D01*
X166534166Y-104065473D02*
X166533738Y-104068843D01*
X166830838Y-103848427D02*
X166765052Y-103893820D01*
X166907013Y-103808199D02*
X166838820Y-103849891D01*
X167230344Y-103690995D02*
X167154672Y-103716725D01*
X166838820Y-103849891D02*
X166830838Y-103848427D01*
X166914902Y-103810101D02*
X166907013Y-103808199D01*
X166985289Y-103772240D02*
X166914902Y-103810101D01*
X166430476Y-104171674D02*
X166383043Y-104236007D01*
X166993062Y-103774575D02*
X166985289Y-103772240D01*
X166765052Y-103893820D02*
X166756999Y-103892799D01*
X167065436Y-103740657D02*
X166993062Y-103774575D01*
X166076518Y-105529797D02*
X166072760Y-105536989D01*
X167728900Y-103403400D02*
X167480141Y-103652159D01*
X167480141Y-103652159D02*
X167406561Y-103664186D01*
X166037449Y-105194887D02*
X166044064Y-105274540D01*
X166489410Y-104108848D02*
X166438500Y-104170461D01*
X167728900Y-102487294D02*
X167728900Y-103403400D01*
X166134565Y-104683066D02*
X166126215Y-104688035D01*
X166438500Y-104170461D02*
X166430476Y-104171674D01*
X167073067Y-103743417D02*
X167065436Y-103740657D01*
X166050174Y-105360180D02*
X166045644Y-105366916D01*
X166756999Y-103892799D02*
X166534166Y-104065473D01*
X167406561Y-103664186D02*
X167399718Y-103659819D01*
X166061002Y-105445351D02*
X166056852Y-105452325D01*
X166323448Y-104306605D02*
X166283400Y-104375773D01*
X167147203Y-103713547D02*
X167073067Y-103743417D01*
X166377934Y-101136328D02*
X167728900Y-102487294D01*
X166042693Y-105188693D02*
X166037449Y-105194887D01*
X167321673Y-103677049D02*
X167314602Y-103673067D01*
X166239516Y-104449569D02*
X166231954Y-104452511D01*
X167314602Y-103673067D02*
X167237624Y-103694580D01*
X167237624Y-103694580D02*
X167230344Y-103690995D01*
X166497491Y-104108080D02*
X166489410Y-104108848D01*
X166533738Y-104068843D02*
X166497491Y-104108080D01*
X166375095Y-104237662D02*
X166331289Y-104304515D01*
X166331289Y-104304515D02*
X166323448Y-104306605D01*
X166283400Y-104375773D02*
X166275684Y-104378294D01*
X166275684Y-104378294D02*
X166239516Y-104449569D01*
X166231954Y-104452511D02*
X166199776Y-104525675D01*
X166199776Y-104525675D02*
X166192386Y-104529031D01*
X166192386Y-104529031D02*
X166134565Y-104683066D01*
X166126215Y-104688035D02*
X166106549Y-104765504D01*
X166106549Y-104765504D02*
X166099814Y-104770033D01*
X166099814Y-104770033D02*
X166084455Y-104848472D01*
X166084455Y-104848472D02*
X166077979Y-104853367D01*
X166077979Y-104853367D02*
X166066976Y-104932532D01*
X166066976Y-104932532D02*
X166060783Y-104937775D01*
X166060783Y-104937775D02*
X166054167Y-105017427D01*
X166054167Y-105017427D02*
X166048270Y-105023007D01*
X166048270Y-105023007D02*
X166046063Y-105102903D01*
X166046063Y-105102903D02*
X166040487Y-105108796D01*
X167399718Y-103659819D02*
X167321673Y-103677049D01*
X166040487Y-105108796D02*
X166042693Y-105188693D01*
X166044064Y-105274540D02*
X166039171Y-105281013D01*
X166039171Y-105281013D02*
X166050174Y-105360180D01*
X166045644Y-105366916D02*
X166061002Y-105445351D01*
X166056852Y-105452325D02*
X166076518Y-105529797D01*
X163145058Y-108680220D02*
X162985045Y-108840233D01*
X163876309Y-108904011D02*
X163652518Y-108680220D01*
X162432978Y-102456725D02*
X162432978Y-106222045D01*
X164459941Y-106705411D02*
X164795189Y-107040659D01*
X164795189Y-107040659D02*
X164795189Y-108597711D01*
X162916344Y-106705411D02*
X164459941Y-106705411D01*
X164795189Y-108597711D02*
X164488889Y-108904011D01*
X165770392Y-100685719D02*
X164965623Y-101490488D01*
X164965623Y-101490488D02*
X163399215Y-101490488D01*
X163399215Y-101490488D02*
X162432978Y-102456725D01*
X162432978Y-106222045D02*
X162916344Y-106705411D01*
X164488889Y-108904011D02*
X163876309Y-108904011D01*
X163652518Y-108680220D02*
X163145058Y-108680220D01*
X162985045Y-108840233D02*
X162660367Y-108840233D01*
X165880361Y-101795299D02*
X165920576Y-101755084D01*
X162737789Y-106095789D02*
X162737789Y-102582981D01*
X163525471Y-101795299D02*
X165880361Y-101795299D01*
X163042600Y-106400600D02*
X162737789Y-106095789D01*
X164586197Y-106400600D02*
X163042600Y-106400600D01*
X165100000Y-106914403D02*
X164586197Y-106400600D01*
X162737789Y-102582981D02*
X163525471Y-101795299D01*
X165100000Y-108723967D02*
X165100000Y-106914403D01*
X164615145Y-109208822D02*
X165100000Y-108723967D01*
X163398788Y-109208822D02*
X164615145Y-109208822D01*
X162072376Y-107629751D02*
X162072376Y-108269940D01*
X161919918Y-107477293D02*
X162072376Y-107629751D01*
X161919918Y-106969835D02*
X161919918Y-107477293D01*
X162128167Y-106761586D02*
X161919918Y-106969835D01*
X162128167Y-103022367D02*
X162128167Y-106761586D01*
X160485047Y-101379247D02*
X162128167Y-103022367D01*
X160485047Y-100728490D02*
X160485047Y-101379247D01*
X161845563Y-109851763D02*
X161845563Y-110261824D01*
X160947100Y-108953300D02*
X161845563Y-109851763D01*
X161823356Y-103148622D02*
X161823356Y-106629244D01*
X160463223Y-101788489D02*
X161823356Y-103148622D01*
X159966368Y-101788489D02*
X160463223Y-101788489D01*
X160947100Y-107505500D02*
X160947100Y-108953300D01*
X159651062Y-102103795D02*
X159966368Y-101788489D01*
X159651062Y-102810814D02*
X159651062Y-102103795D01*
X161823356Y-106629244D02*
X160947100Y-107505500D01*
X162630795Y-110205929D02*
X164242362Y-110205929D01*
X161489079Y-107784799D02*
X161489079Y-109064213D01*
X161489079Y-109064213D02*
X162630795Y-110205929D01*
X164242362Y-110205929D02*
X164666626Y-110205929D01*
X159883322Y-106241925D02*
X159930754Y-106177592D01*
X159628074Y-106472418D02*
X159688452Y-106420048D01*
X159816306Y-106305520D02*
X159824387Y-106304752D01*
X160187583Y-105725565D02*
X160207249Y-105648096D01*
X159696564Y-106420175D02*
X159753960Y-106364550D01*
X159875298Y-106243138D02*
X159883322Y-106241925D01*
X159482957Y-106565172D02*
X159548745Y-106519779D01*
X159938700Y-106175938D02*
X159982506Y-106109086D01*
X159619978Y-106471844D02*
X159628074Y-106472418D01*
X159556799Y-106520800D02*
X159619978Y-106471844D01*
X159762070Y-106364229D02*
X159816306Y-106305520D01*
X159248362Y-106672942D02*
X159320736Y-106639024D01*
X160156695Y-105805980D02*
X160180608Y-105729715D01*
X159753960Y-106364550D02*
X159762070Y-106364229D01*
X159474978Y-106563709D02*
X159482957Y-106565172D01*
X160235819Y-105560234D02*
X160246822Y-105481069D01*
X159398897Y-106603498D02*
X159406787Y-106605400D01*
X159688452Y-106420048D02*
X159696564Y-106420175D01*
X159499300Y-108800900D02*
X158970703Y-108272303D01*
X160038114Y-106035305D02*
X160074282Y-105964030D01*
X158970703Y-108272303D02*
X158970703Y-106741601D01*
X158970703Y-106741601D02*
X158996238Y-106738864D01*
X158996238Y-106738864D02*
X158999198Y-106740531D01*
X158999198Y-106740531D02*
X159076173Y-106719019D01*
X159548745Y-106519779D02*
X159556799Y-106520800D01*
X159083453Y-106722604D02*
X159159126Y-106696873D01*
X159076173Y-106719019D02*
X159083453Y-106722604D01*
X159824387Y-106304752D02*
X159875298Y-106243138D01*
X159159126Y-106696873D02*
X159166593Y-106700051D01*
X159166593Y-106700051D02*
X159240730Y-106670181D01*
X160259631Y-105396173D02*
X160265528Y-105390593D01*
X159406787Y-106605400D02*
X159474978Y-106563709D01*
X159320736Y-106639024D02*
X159328509Y-106641359D01*
X159240730Y-106670181D02*
X159248362Y-106672942D01*
X160271773Y-105164517D02*
X161294746Y-104141555D01*
X159328509Y-106641359D02*
X159398897Y-106603498D01*
X159930754Y-106177592D02*
X159938700Y-106175938D01*
X159982506Y-106109086D02*
X159990348Y-106106996D01*
X159990348Y-106106996D02*
X160030397Y-106037826D01*
X160030397Y-106037826D02*
X160038114Y-106035305D01*
X160074282Y-105964030D02*
X160081844Y-105961088D01*
X160081844Y-105961088D02*
X160114022Y-105887925D01*
X160114022Y-105887925D02*
X160121412Y-105884569D01*
X160121412Y-105884569D02*
X160149502Y-105809739D01*
X160149502Y-105809739D02*
X160156695Y-105805980D01*
X160180608Y-105729715D02*
X160187583Y-105725565D01*
X160207249Y-105648096D02*
X160213983Y-105643568D01*
X160213983Y-105643568D02*
X160229342Y-105565130D01*
X160229342Y-105565130D02*
X160235819Y-105560234D01*
X160246822Y-105481069D02*
X160253015Y-105475826D01*
X160253015Y-105475826D02*
X160259631Y-105396173D01*
X160265528Y-105390593D02*
X160271773Y-105164517D01*
X161294746Y-104141555D02*
X161294746Y-103638964D01*
X159118300Y-101882128D02*
X159118300Y-103208145D01*
X159118300Y-103208145D02*
X160289729Y-104379574D01*
X159589544Y-101410884D02*
X159118300Y-101882128D01*
D12*
X167373300Y-102634589D02*
X167373301Y-103256105D01*
X167316482Y-103312925D01*
X167305997Y-103316347D01*
X167302517Y-103317116D01*
X167287413Y-103316783D01*
X167287412Y-103316783D01*
X167274448Y-103319067D01*
X167235710Y-103325890D01*
X167235705Y-103325891D01*
X167218427Y-103328935D01*
X167202077Y-103335290D01*
X167198626Y-103336254D01*
X167183525Y-103336756D01*
X167183513Y-103336759D01*
X167183506Y-103336759D01*
X167163204Y-103341505D01*
X167132403Y-103348703D01*
X167132382Y-103348710D01*
X167115297Y-103352704D01*
X167099335Y-103359947D01*
X167095947Y-103361099D01*
X167080891Y-103362435D01*
X167080876Y-103362439D01*
X167080858Y-103362441D01*
X167047113Y-103372325D01*
X167030508Y-103377187D01*
X167030492Y-103377194D01*
X167013635Y-103382131D01*
X166998097Y-103390246D01*
X166994792Y-103391577D01*
X166979841Y-103393741D01*
X166979822Y-103393748D01*
X166979806Y-103393750D01*
X166953672Y-103403000D01*
X166930347Y-103411253D01*
X166930326Y-103411263D01*
X166913772Y-103417122D01*
X166898710Y-103426080D01*
X166895482Y-103427593D01*
X166880667Y-103430580D01*
X166880653Y-103430586D01*
X166880642Y-103430588D01*
X166851319Y-103442827D01*
X166832216Y-103450799D01*
X166832203Y-103450806D01*
X166816000Y-103457569D01*
X166801448Y-103467349D01*
X166798308Y-103469038D01*
X166783685Y-103472838D01*
X166783676Y-103472842D01*
X166783662Y-103472846D01*
X166754773Y-103486824D01*
X166736425Y-103495700D01*
X166736413Y-103495707D01*
X166720607Y-103503355D01*
X166706617Y-103513924D01*
X166703573Y-103515785D01*
X166689178Y-103520388D01*
X166660341Y-103536361D01*
X166643256Y-103545824D01*
X166643253Y-103545826D01*
X166627902Y-103554329D01*
X166614510Y-103565659D01*
X166611568Y-103567689D01*
X166597440Y-103573083D01*
X166597433Y-103573088D01*
X166597429Y-103573089D01*
X166586414Y-103580012D01*
X166584567Y-103581173D01*
X166572081Y-103518404D01*
X166528404Y-103412960D01*
X166464996Y-103318063D01*
X166384293Y-103237360D01*
X166289396Y-103173952D01*
X166183952Y-103130275D01*
X166072013Y-103108009D01*
X165957881Y-103108009D01*
X165845942Y-103130275D01*
X165740498Y-103173952D01*
X165645601Y-103237360D01*
X165564898Y-103318063D01*
X165501490Y-103412960D01*
X165457813Y-103518404D01*
X165435547Y-103630343D01*
X165435547Y-103744475D01*
X165457813Y-103856414D01*
X165501490Y-103961858D01*
X165564898Y-104056755D01*
X165645601Y-104137458D01*
X165740498Y-104200866D01*
X165845942Y-104244543D01*
X165931384Y-104261538D01*
X165929249Y-104265333D01*
X165906738Y-104305338D01*
X165829981Y-104254050D01*
X165724537Y-104210373D01*
X165612598Y-104188107D01*
X165498466Y-104188107D01*
X165386527Y-104210373D01*
X165281083Y-104254050D01*
X165186186Y-104317458D01*
X165105483Y-104398161D01*
X165042075Y-104493058D01*
X164998398Y-104598502D01*
X164976132Y-104710441D01*
X164976132Y-104824573D01*
X164998398Y-104936512D01*
X165042075Y-105041956D01*
X165105483Y-105136853D01*
X165186186Y-105217556D01*
X165281083Y-105280964D01*
X165386527Y-105324641D01*
X165498466Y-105346907D01*
X165612598Y-105346907D01*
X165685771Y-105332352D01*
X165689361Y-105347265D01*
X165689853Y-105350804D01*
X165688326Y-105365849D01*
X165694984Y-105435578D01*
X165700027Y-105452385D01*
X165700714Y-105455890D01*
X165700068Y-105469953D01*
X165700020Y-105470990D01*
X165703271Y-105492436D01*
X165707045Y-105517335D01*
X165698376Y-105515611D01*
X165584244Y-105515611D01*
X165472305Y-105537877D01*
X165366861Y-105581554D01*
X165271964Y-105644962D01*
X165191261Y-105725665D01*
X165127853Y-105820562D01*
X165084176Y-105926006D01*
X165061910Y-106037945D01*
X165061910Y-106152077D01*
X165084176Y-106264016D01*
X165127853Y-106369460D01*
X165191261Y-106464357D01*
X165271964Y-106545060D01*
X165366861Y-106608468D01*
X165472305Y-106652145D01*
X165528563Y-106663335D01*
X165528563Y-106742296D01*
X165550829Y-106854235D01*
X165594506Y-106959679D01*
X165657914Y-107054576D01*
X165738617Y-107135279D01*
X165833271Y-107198525D01*
X165818503Y-107234177D01*
X165796237Y-107346116D01*
X165796237Y-107460248D01*
X165818503Y-107572187D01*
X165862180Y-107677631D01*
X165925588Y-107772528D01*
X166006291Y-107853231D01*
X166101188Y-107916639D01*
X166206632Y-107960316D01*
X166318571Y-107982582D01*
X166432703Y-107982582D01*
X166544642Y-107960316D01*
X166650086Y-107916639D01*
X166744983Y-107853231D01*
X166825686Y-107772528D01*
X166889094Y-107677631D01*
X166932771Y-107572187D01*
X166955037Y-107460248D01*
X166955037Y-107346116D01*
X166932771Y-107234177D01*
X166889094Y-107128733D01*
X166825686Y-107033836D01*
X166744983Y-106953133D01*
X166650329Y-106889887D01*
X166665097Y-106854235D01*
X166687363Y-106742296D01*
X166687363Y-106628164D01*
X166665097Y-106516225D01*
X166621420Y-106410781D01*
X166614280Y-106400095D01*
X166714827Y-106482545D01*
X166733836Y-106495248D01*
X166752629Y-106508189D01*
X166755719Y-106509871D01*
X166979419Y-106629577D01*
X167000505Y-106638334D01*
X167021483Y-106647391D01*
X167024837Y-106648439D01*
X167024843Y-106648441D01*
X167267532Y-106722416D01*
X167289907Y-106726908D01*
X167312253Y-106731720D01*
X167315751Y-106732097D01*
X167568189Y-106757526D01*
X167591047Y-106757587D01*
X167613866Y-106757966D01*
X167617370Y-106757657D01*
X167617372Y-106757657D01*
X167869940Y-106733570D01*
X167892421Y-106729181D01*
X167914833Y-106725129D01*
X167918200Y-106724148D01*
X167918210Y-106724146D01*
X167918219Y-106724142D01*
X168161292Y-106651459D01*
X168182496Y-106642785D01*
X168203690Y-106634459D01*
X168206808Y-106632841D01*
X168206816Y-106632837D01*
X168431146Y-106514321D01*
X168431150Y-106514319D01*
X168446037Y-106506453D01*
X168154961Y-107372496D01*
X167779287Y-108070859D01*
X167747057Y-107993051D01*
X167683649Y-107898154D01*
X167602946Y-107817451D01*
X167508049Y-107754043D01*
X167402605Y-107710366D01*
X167290666Y-107688100D01*
X167176534Y-107688100D01*
X167064595Y-107710366D01*
X166959151Y-107754043D01*
X166864254Y-107817451D01*
X166783551Y-107898154D01*
X166720143Y-107993051D01*
X166676466Y-108098495D01*
X166654200Y-108210434D01*
X166654200Y-108324566D01*
X166676466Y-108436505D01*
X166720143Y-108541949D01*
X166783551Y-108636846D01*
X166864254Y-108717549D01*
X166959151Y-108780957D01*
X167064595Y-108824634D01*
X167176534Y-108846900D01*
X167200844Y-108846900D01*
X167151822Y-108909696D01*
X166470810Y-109529861D01*
X165695048Y-110026412D01*
X165246026Y-110216295D01*
X165246026Y-110148863D01*
X165223760Y-110036924D01*
X165180083Y-109931480D01*
X165116675Y-109836583D01*
X165035972Y-109755880D01*
X164941075Y-109692472D01*
X164835631Y-109648795D01*
X164723692Y-109626529D01*
X164609560Y-109626529D01*
X164497621Y-109648795D01*
X164392177Y-109692472D01*
X164297280Y-109755880D01*
X164216577Y-109836583D01*
X164207392Y-109850329D01*
X162778090Y-109850329D01*
X161844679Y-108916920D01*
X161844679Y-108802763D01*
X161903371Y-108827074D01*
X162015310Y-108849340D01*
X162080967Y-108849340D01*
X162080967Y-108897299D01*
X162103233Y-109009238D01*
X162146910Y-109114682D01*
X162210318Y-109209579D01*
X162291021Y-109290282D01*
X162385918Y-109353690D01*
X162491362Y-109397367D01*
X162603301Y-109419633D01*
X162717433Y-109419633D01*
X162829372Y-109397367D01*
X162846764Y-109390163D01*
X162885331Y-109483271D01*
X162948739Y-109578168D01*
X163029442Y-109658871D01*
X163124339Y-109722279D01*
X163229783Y-109765956D01*
X163341722Y-109788222D01*
X163455854Y-109788222D01*
X163567793Y-109765956D01*
X163673237Y-109722279D01*
X163768134Y-109658871D01*
X163848837Y-109578168D01*
X163858022Y-109564422D01*
X164597690Y-109564422D01*
X164615145Y-109566141D01*
X164632600Y-109564422D01*
X164632608Y-109564422D01*
X164684855Y-109559276D01*
X164751885Y-109538943D01*
X164813661Y-109505923D01*
X164867808Y-109461485D01*
X164878944Y-109447916D01*
X165339104Y-108987757D01*
X165352662Y-108976630D01*
X165363790Y-108963071D01*
X165363795Y-108963066D01*
X165397101Y-108922483D01*
X165403804Y-108909943D01*
X165430121Y-108860707D01*
X165450454Y-108793677D01*
X165455600Y-108741430D01*
X165455600Y-108741422D01*
X165457319Y-108723967D01*
X165455600Y-108706512D01*
X165455600Y-106931858D01*
X165457319Y-106914402D01*
X165455600Y-106896947D01*
X165455600Y-106896940D01*
X165450748Y-106847679D01*
X165450454Y-106844692D01*
X165441600Y-106815505D01*
X165430121Y-106777663D01*
X165397101Y-106715887D01*
X165391240Y-106708745D01*
X165363795Y-106675303D01*
X165363790Y-106675298D01*
X165352663Y-106661740D01*
X165339105Y-106650613D01*
X164849995Y-106161505D01*
X164838860Y-106147937D01*
X164784713Y-106103499D01*
X164722937Y-106070479D01*
X164655907Y-106050146D01*
X164603660Y-106045000D01*
X164603652Y-106045000D01*
X164586197Y-106043281D01*
X164568742Y-106045000D01*
X163189894Y-106045000D01*
X163093389Y-105948496D01*
X163093389Y-103489126D01*
X163413729Y-103489126D01*
X163413729Y-103603258D01*
X163435995Y-103715197D01*
X163479672Y-103820641D01*
X163543080Y-103915538D01*
X163623783Y-103996241D01*
X163718680Y-104059649D01*
X163824124Y-104103326D01*
X163880818Y-104114603D01*
X163880818Y-104193150D01*
X163903084Y-104305089D01*
X163946761Y-104410533D01*
X164010169Y-104505430D01*
X164090872Y-104586133D01*
X164185769Y-104649541D01*
X164291213Y-104693218D01*
X164403152Y-104715484D01*
X164517284Y-104715484D01*
X164629223Y-104693218D01*
X164734667Y-104649541D01*
X164829564Y-104586133D01*
X164910267Y-104505430D01*
X164973675Y-104410533D01*
X165017352Y-104305089D01*
X165039618Y-104193150D01*
X165039618Y-104079018D01*
X165017352Y-103967079D01*
X165016732Y-103965582D01*
X165028477Y-103963246D01*
X165133921Y-103919569D01*
X165228818Y-103856161D01*
X165309521Y-103775458D01*
X165372929Y-103680561D01*
X165416606Y-103575117D01*
X165438872Y-103463178D01*
X165438872Y-103349046D01*
X165416606Y-103237107D01*
X165372929Y-103131663D01*
X165309521Y-103036766D01*
X165228818Y-102956063D01*
X165133921Y-102892655D01*
X165028477Y-102848978D01*
X164916538Y-102826712D01*
X164802406Y-102826712D01*
X164690467Y-102848978D01*
X164585023Y-102892655D01*
X164490126Y-102956063D01*
X164409423Y-103036766D01*
X164366835Y-103100503D01*
X164362475Y-103096143D01*
X164267578Y-103032735D01*
X164162134Y-102989058D01*
X164050195Y-102966792D01*
X163936063Y-102966792D01*
X163824124Y-102989058D01*
X163718680Y-103032735D01*
X163623783Y-103096143D01*
X163543080Y-103176846D01*
X163479672Y-103271743D01*
X163435995Y-103377187D01*
X163413729Y-103489126D01*
X163093389Y-103489126D01*
X163093389Y-102730274D01*
X163672765Y-102150899D01*
X165430999Y-102150899D01*
X165376526Y-102232424D01*
X165332849Y-102337868D01*
X165310583Y-102449807D01*
X165310583Y-102563939D01*
X165332849Y-102675878D01*
X165376526Y-102781322D01*
X165439934Y-102876219D01*
X165520637Y-102956922D01*
X165615534Y-103020330D01*
X165720978Y-103064007D01*
X165832917Y-103086273D01*
X165947049Y-103086273D01*
X166058988Y-103064007D01*
X166164432Y-103020330D01*
X166259329Y-102956922D01*
X166340032Y-102876219D01*
X166403440Y-102781322D01*
X166447117Y-102675878D01*
X166469383Y-102563939D01*
X166469383Y-102449807D01*
X166447117Y-102337868D01*
X166403440Y-102232424D01*
X166347040Y-102148015D01*
X166370625Y-102124430D01*
X166434033Y-102029533D01*
X166477710Y-101924089D01*
X166499976Y-101812150D01*
X166499976Y-101761264D01*
X167373300Y-102634589D01*
G04 #@! TA.AperFunction,Conductor*
D13*
G36*
X167373300Y-102634589D02*
G01*
X167373301Y-103256105D01*
X167316482Y-103312925D01*
X167305997Y-103316347D01*
X167302517Y-103317116D01*
X167287413Y-103316783D01*
X167287412Y-103316783D01*
X167274448Y-103319067D01*
X167235710Y-103325890D01*
X167235705Y-103325891D01*
X167218427Y-103328935D01*
X167202077Y-103335290D01*
X167198626Y-103336254D01*
X167183525Y-103336756D01*
X167183513Y-103336759D01*
X167183506Y-103336759D01*
X167163204Y-103341505D01*
X167132403Y-103348703D01*
X167132382Y-103348710D01*
X167115297Y-103352704D01*
X167099335Y-103359947D01*
X167095947Y-103361099D01*
X167080891Y-103362435D01*
X167080876Y-103362439D01*
X167080858Y-103362441D01*
X167047113Y-103372325D01*
X167030508Y-103377187D01*
X167030492Y-103377194D01*
X167013635Y-103382131D01*
X166998097Y-103390246D01*
X166994792Y-103391577D01*
X166979841Y-103393741D01*
X166979822Y-103393748D01*
X166979806Y-103393750D01*
X166953672Y-103403000D01*
X166930347Y-103411253D01*
X166930326Y-103411263D01*
X166913772Y-103417122D01*
X166898710Y-103426080D01*
X166895482Y-103427593D01*
X166880667Y-103430580D01*
X166880653Y-103430586D01*
X166880642Y-103430588D01*
X166851319Y-103442827D01*
X166832216Y-103450799D01*
X166832203Y-103450806D01*
X166816000Y-103457569D01*
X166801448Y-103467349D01*
X166798308Y-103469038D01*
X166783685Y-103472838D01*
X166783676Y-103472842D01*
X166783662Y-103472846D01*
X166754773Y-103486824D01*
X166736425Y-103495700D01*
X166736413Y-103495707D01*
X166720607Y-103503355D01*
X166706617Y-103513924D01*
X166703573Y-103515785D01*
X166689178Y-103520388D01*
X166660341Y-103536361D01*
X166643256Y-103545824D01*
X166643253Y-103545826D01*
X166627902Y-103554329D01*
X166614510Y-103565659D01*
X166611568Y-103567689D01*
X166597440Y-103573083D01*
X166597433Y-103573088D01*
X166597429Y-103573089D01*
X166586414Y-103580012D01*
X166584567Y-103581173D01*
X166572081Y-103518404D01*
X166528404Y-103412960D01*
X166464996Y-103318063D01*
X166384293Y-103237360D01*
X166289396Y-103173952D01*
X166183952Y-103130275D01*
X166072013Y-103108009D01*
X165957881Y-103108009D01*
X165845942Y-103130275D01*
X165740498Y-103173952D01*
X165645601Y-103237360D01*
X165564898Y-103318063D01*
X165501490Y-103412960D01*
X165457813Y-103518404D01*
X165435547Y-103630343D01*
X165435547Y-103744475D01*
X165457813Y-103856414D01*
X165501490Y-103961858D01*
X165564898Y-104056755D01*
X165645601Y-104137458D01*
X165740498Y-104200866D01*
X165845942Y-104244543D01*
X165931384Y-104261538D01*
X165929249Y-104265333D01*
X165906738Y-104305338D01*
X165829981Y-104254050D01*
X165724537Y-104210373D01*
X165612598Y-104188107D01*
X165498466Y-104188107D01*
X165386527Y-104210373D01*
X165281083Y-104254050D01*
X165186186Y-104317458D01*
X165105483Y-104398161D01*
X165042075Y-104493058D01*
X164998398Y-104598502D01*
X164976132Y-104710441D01*
X164976132Y-104824573D01*
X164998398Y-104936512D01*
X165042075Y-105041956D01*
X165105483Y-105136853D01*
X165186186Y-105217556D01*
X165281083Y-105280964D01*
X165386527Y-105324641D01*
X165498466Y-105346907D01*
X165612598Y-105346907D01*
X165685771Y-105332352D01*
X165689361Y-105347265D01*
X165689853Y-105350804D01*
X165688326Y-105365849D01*
X165694984Y-105435578D01*
X165700027Y-105452385D01*
X165700714Y-105455890D01*
X165700068Y-105469953D01*
X165700020Y-105470990D01*
X165703271Y-105492436D01*
X165707045Y-105517335D01*
X165698376Y-105515611D01*
X165584244Y-105515611D01*
X165472305Y-105537877D01*
X165366861Y-105581554D01*
X165271964Y-105644962D01*
X165191261Y-105725665D01*
X165127853Y-105820562D01*
X165084176Y-105926006D01*
X165061910Y-106037945D01*
X165061910Y-106152077D01*
X165084176Y-106264016D01*
X165127853Y-106369460D01*
X165191261Y-106464357D01*
X165271964Y-106545060D01*
X165366861Y-106608468D01*
X165472305Y-106652145D01*
X165528563Y-106663335D01*
X165528563Y-106742296D01*
X165550829Y-106854235D01*
X165594506Y-106959679D01*
X165657914Y-107054576D01*
X165738617Y-107135279D01*
X165833271Y-107198525D01*
X165818503Y-107234177D01*
X165796237Y-107346116D01*
X165796237Y-107460248D01*
X165818503Y-107572187D01*
X165862180Y-107677631D01*
X165925588Y-107772528D01*
X166006291Y-107853231D01*
X166101188Y-107916639D01*
X166206632Y-107960316D01*
X166318571Y-107982582D01*
X166432703Y-107982582D01*
X166544642Y-107960316D01*
X166650086Y-107916639D01*
X166744983Y-107853231D01*
X166825686Y-107772528D01*
X166889094Y-107677631D01*
X166932771Y-107572187D01*
X166955037Y-107460248D01*
X166955037Y-107346116D01*
X166932771Y-107234177D01*
X166889094Y-107128733D01*
X166825686Y-107033836D01*
X166744983Y-106953133D01*
X166650329Y-106889887D01*
X166665097Y-106854235D01*
X166687363Y-106742296D01*
X166687363Y-106628164D01*
X166665097Y-106516225D01*
X166621420Y-106410781D01*
X166614280Y-106400095D01*
X166714827Y-106482545D01*
X166733836Y-106495248D01*
X166752629Y-106508189D01*
X166755719Y-106509871D01*
X166979419Y-106629577D01*
X167000505Y-106638334D01*
X167021483Y-106647391D01*
X167024837Y-106648439D01*
X167024843Y-106648441D01*
X167267532Y-106722416D01*
X167289907Y-106726908D01*
X167312253Y-106731720D01*
X167315751Y-106732097D01*
X167568189Y-106757526D01*
X167591047Y-106757587D01*
X167613866Y-106757966D01*
X167617370Y-106757657D01*
X167617372Y-106757657D01*
X167869940Y-106733570D01*
X167892421Y-106729181D01*
X167914833Y-106725129D01*
X167918200Y-106724148D01*
X167918210Y-106724146D01*
X167918219Y-106724142D01*
X168161292Y-106651459D01*
X168182496Y-106642785D01*
X168203690Y-106634459D01*
X168206808Y-106632841D01*
X168206816Y-106632837D01*
X168431146Y-106514321D01*
X168431150Y-106514319D01*
X168446037Y-106506453D01*
X168154961Y-107372496D01*
X167779287Y-108070859D01*
X167747057Y-107993051D01*
X167683649Y-107898154D01*
X167602946Y-107817451D01*
X167508049Y-107754043D01*
X167402605Y-107710366D01*
X167290666Y-107688100D01*
X167176534Y-107688100D01*
X167064595Y-107710366D01*
X166959151Y-107754043D01*
X166864254Y-107817451D01*
X166783551Y-107898154D01*
X166720143Y-107993051D01*
X166676466Y-108098495D01*
X166654200Y-108210434D01*
X166654200Y-108324566D01*
X166676466Y-108436505D01*
X166720143Y-108541949D01*
X166783551Y-108636846D01*
X166864254Y-108717549D01*
X166959151Y-108780957D01*
X167064595Y-108824634D01*
X167176534Y-108846900D01*
X167200844Y-108846900D01*
X167151822Y-108909696D01*
X166470810Y-109529861D01*
X165695048Y-110026412D01*
X165246026Y-110216295D01*
X165246026Y-110148863D01*
X165223760Y-110036924D01*
X165180083Y-109931480D01*
X165116675Y-109836583D01*
X165035972Y-109755880D01*
X164941075Y-109692472D01*
X164835631Y-109648795D01*
X164723692Y-109626529D01*
X164609560Y-109626529D01*
X164497621Y-109648795D01*
X164392177Y-109692472D01*
X164297280Y-109755880D01*
X164216577Y-109836583D01*
X164207392Y-109850329D01*
X162778090Y-109850329D01*
X161844679Y-108916920D01*
X161844679Y-108802763D01*
X161903371Y-108827074D01*
X162015310Y-108849340D01*
X162080967Y-108849340D01*
X162080967Y-108897299D01*
X162103233Y-109009238D01*
X162146910Y-109114682D01*
X162210318Y-109209579D01*
X162291021Y-109290282D01*
X162385918Y-109353690D01*
X162491362Y-109397367D01*
X162603301Y-109419633D01*
X162717433Y-109419633D01*
X162829372Y-109397367D01*
X162846764Y-109390163D01*
X162885331Y-109483271D01*
X162948739Y-109578168D01*
X163029442Y-109658871D01*
X163124339Y-109722279D01*
X163229783Y-109765956D01*
X163341722Y-109788222D01*
X163455854Y-109788222D01*
X163567793Y-109765956D01*
X163673237Y-109722279D01*
X163768134Y-109658871D01*
X163848837Y-109578168D01*
X163858022Y-109564422D01*
X164597690Y-109564422D01*
X164615145Y-109566141D01*
X164632600Y-109564422D01*
X164632608Y-109564422D01*
X164684855Y-109559276D01*
X164751885Y-109538943D01*
X164813661Y-109505923D01*
X164867808Y-109461485D01*
X164878944Y-109447916D01*
X165339104Y-108987757D01*
X165352662Y-108976630D01*
X165363790Y-108963071D01*
X165363795Y-108963066D01*
X165397101Y-108922483D01*
X165403804Y-108909943D01*
X165430121Y-108860707D01*
X165450454Y-108793677D01*
X165455600Y-108741430D01*
X165455600Y-108741422D01*
X165457319Y-108723967D01*
X165455600Y-108706512D01*
X165455600Y-106931858D01*
X165457319Y-106914402D01*
X165455600Y-106896947D01*
X165455600Y-106896940D01*
X165450748Y-106847679D01*
X165450454Y-106844692D01*
X165441600Y-106815505D01*
X165430121Y-106777663D01*
X165397101Y-106715887D01*
X165391240Y-106708745D01*
X165363795Y-106675303D01*
X165363790Y-106675298D01*
X165352663Y-106661740D01*
X165339105Y-106650613D01*
X164849995Y-106161505D01*
X164838860Y-106147937D01*
X164784713Y-106103499D01*
X164722937Y-106070479D01*
X164655907Y-106050146D01*
X164603660Y-106045000D01*
X164603652Y-106045000D01*
X164586197Y-106043281D01*
X164568742Y-106045000D01*
X163189894Y-106045000D01*
X163093389Y-105948496D01*
X163093389Y-103489126D01*
X163413729Y-103489126D01*
X163413729Y-103603258D01*
X163435995Y-103715197D01*
X163479672Y-103820641D01*
X163543080Y-103915538D01*
X163623783Y-103996241D01*
X163718680Y-104059649D01*
X163824124Y-104103326D01*
X163880818Y-104114603D01*
X163880818Y-104193150D01*
X163903084Y-104305089D01*
X163946761Y-104410533D01*
X164010169Y-104505430D01*
X164090872Y-104586133D01*
X164185769Y-104649541D01*
X164291213Y-104693218D01*
X164403152Y-104715484D01*
X164517284Y-104715484D01*
X164629223Y-104693218D01*
X164734667Y-104649541D01*
X164829564Y-104586133D01*
X164910267Y-104505430D01*
X164973675Y-104410533D01*
X165017352Y-104305089D01*
X165039618Y-104193150D01*
X165039618Y-104079018D01*
X165017352Y-103967079D01*
X165016732Y-103965582D01*
X165028477Y-103963246D01*
X165133921Y-103919569D01*
X165228818Y-103856161D01*
X165309521Y-103775458D01*
X165372929Y-103680561D01*
X165416606Y-103575117D01*
X165438872Y-103463178D01*
X165438872Y-103349046D01*
X165416606Y-103237107D01*
X165372929Y-103131663D01*
X165309521Y-103036766D01*
X165228818Y-102956063D01*
X165133921Y-102892655D01*
X165028477Y-102848978D01*
X164916538Y-102826712D01*
X164802406Y-102826712D01*
X164690467Y-102848978D01*
X164585023Y-102892655D01*
X164490126Y-102956063D01*
X164409423Y-103036766D01*
X164366835Y-103100503D01*
X164362475Y-103096143D01*
X164267578Y-103032735D01*
X164162134Y-102989058D01*
X164050195Y-102966792D01*
X163936063Y-102966792D01*
X163824124Y-102989058D01*
X163718680Y-103032735D01*
X163623783Y-103096143D01*
X163543080Y-103176846D01*
X163479672Y-103271743D01*
X163435995Y-103377187D01*
X163413729Y-103489126D01*
X163093389Y-103489126D01*
X163093389Y-102730274D01*
X163672765Y-102150899D01*
X165430999Y-102150899D01*
X165376526Y-102232424D01*
X165332849Y-102337868D01*
X165310583Y-102449807D01*
X165310583Y-102563939D01*
X165332849Y-102675878D01*
X165376526Y-102781322D01*
X165439934Y-102876219D01*
X165520637Y-102956922D01*
X165615534Y-103020330D01*
X165720978Y-103064007D01*
X165832917Y-103086273D01*
X165947049Y-103086273D01*
X166058988Y-103064007D01*
X166164432Y-103020330D01*
X166259329Y-102956922D01*
X166340032Y-102876219D01*
X166403440Y-102781322D01*
X166447117Y-102675878D01*
X166469383Y-102563939D01*
X166469383Y-102449807D01*
X166447117Y-102337868D01*
X166403440Y-102232424D01*
X166347040Y-102148015D01*
X166370625Y-102124430D01*
X166434033Y-102029533D01*
X166477710Y-101924089D01*
X166499976Y-101812150D01*
X166499976Y-101761264D01*
X167373300Y-102634589D01*
G37*
G04 #@! TD.AperFunction*
D12*
X159758100Y-106838834D02*
X159758100Y-106952966D01*
X159780366Y-107064905D01*
X159824043Y-107170349D01*
X159887451Y-107265246D01*
X159892751Y-107270546D01*
X159818462Y-107344834D01*
X159755054Y-107439731D01*
X159711377Y-107545175D01*
X159689111Y-107657114D01*
X159689111Y-107771246D01*
X159711377Y-107883185D01*
X159755054Y-107988629D01*
X159818462Y-108083526D01*
X159899165Y-108164229D01*
X159994062Y-108227637D01*
X160099506Y-108271314D01*
X160211445Y-108293580D01*
X160325577Y-108293580D01*
X160437516Y-108271314D01*
X160542960Y-108227637D01*
X160591500Y-108195203D01*
X160591501Y-108935835D01*
X160589781Y-108953300D01*
X160596646Y-109023010D01*
X160616980Y-109090041D01*
X160628253Y-109111131D01*
X160650000Y-109151816D01*
X160694438Y-109205963D01*
X160708001Y-109217094D01*
X160875264Y-109384357D01*
X160825098Y-109405137D01*
X160730201Y-109468545D01*
X160649498Y-109549248D01*
X160586090Y-109644145D01*
X160542413Y-109749589D01*
X160520147Y-109861528D01*
X160520147Y-109962024D01*
X160398235Y-109903673D01*
X159646303Y-109371720D01*
X159638533Y-109363956D01*
X159668305Y-109358034D01*
X159773749Y-109314357D01*
X159868646Y-109250949D01*
X159949349Y-109170246D01*
X160012757Y-109075349D01*
X160056434Y-108969905D01*
X160078700Y-108857966D01*
X160078700Y-108743834D01*
X160056434Y-108631895D01*
X160012757Y-108526451D01*
X159949349Y-108431554D01*
X159868646Y-108350851D01*
X159773749Y-108287443D01*
X159668305Y-108243766D01*
X159556366Y-108221500D01*
X159442234Y-108221500D01*
X159426019Y-108224725D01*
X159326303Y-108125010D01*
X159326303Y-107020966D01*
X159333958Y-107019858D01*
X159333961Y-107019857D01*
X159333967Y-107019856D01*
X159360211Y-107010569D01*
X159383451Y-107002346D01*
X159383460Y-107002342D01*
X159400002Y-106996488D01*
X159415077Y-106987524D01*
X159418316Y-106986006D01*
X159433130Y-106983019D01*
X159433143Y-106983014D01*
X159433156Y-106983011D01*
X159464724Y-106969835D01*
X159481580Y-106962801D01*
X159481595Y-106962793D01*
X159497798Y-106956030D01*
X159512349Y-106946251D01*
X159515489Y-106944562D01*
X159530115Y-106940761D01*
X159530130Y-106940754D01*
X159530148Y-106940749D01*
X159555674Y-106928397D01*
X159577376Y-106917899D01*
X159577402Y-106917883D01*
X159593201Y-106910238D01*
X159607179Y-106899678D01*
X159610233Y-106897810D01*
X159624609Y-106893214D01*
X159624620Y-106893208D01*
X159624635Y-106893203D01*
X159653454Y-106877238D01*
X159670535Y-106867778D01*
X159670552Y-106867767D01*
X159685909Y-106859259D01*
X159699289Y-106847938D01*
X159702227Y-106845911D01*
X159716352Y-106840518D01*
X159716363Y-106840511D01*
X159716374Y-106840507D01*
X159740540Y-106825318D01*
X159760804Y-106812584D01*
X159760822Y-106812570D01*
X159763682Y-106810773D01*
X159758100Y-106838834D01*
G04 #@! TA.AperFunction,Conductor*
D13*
G36*
X159758100Y-106838834D02*
G01*
X159758100Y-106952966D01*
X159780366Y-107064905D01*
X159824043Y-107170349D01*
X159887451Y-107265246D01*
X159892751Y-107270546D01*
X159818462Y-107344834D01*
X159755054Y-107439731D01*
X159711377Y-107545175D01*
X159689111Y-107657114D01*
X159689111Y-107771246D01*
X159711377Y-107883185D01*
X159755054Y-107988629D01*
X159818462Y-108083526D01*
X159899165Y-108164229D01*
X159994062Y-108227637D01*
X160099506Y-108271314D01*
X160211445Y-108293580D01*
X160325577Y-108293580D01*
X160437516Y-108271314D01*
X160542960Y-108227637D01*
X160591500Y-108195203D01*
X160591501Y-108935835D01*
X160589781Y-108953300D01*
X160596646Y-109023010D01*
X160616980Y-109090041D01*
X160628253Y-109111131D01*
X160650000Y-109151816D01*
X160694438Y-109205963D01*
X160708001Y-109217094D01*
X160875264Y-109384357D01*
X160825098Y-109405137D01*
X160730201Y-109468545D01*
X160649498Y-109549248D01*
X160586090Y-109644145D01*
X160542413Y-109749589D01*
X160520147Y-109861528D01*
X160520147Y-109962024D01*
X160398235Y-109903673D01*
X159646303Y-109371720D01*
X159638533Y-109363956D01*
X159668305Y-109358034D01*
X159773749Y-109314357D01*
X159868646Y-109250949D01*
X159949349Y-109170246D01*
X160012757Y-109075349D01*
X160056434Y-108969905D01*
X160078700Y-108857966D01*
X160078700Y-108743834D01*
X160056434Y-108631895D01*
X160012757Y-108526451D01*
X159949349Y-108431554D01*
X159868646Y-108350851D01*
X159773749Y-108287443D01*
X159668305Y-108243766D01*
X159556366Y-108221500D01*
X159442234Y-108221500D01*
X159426019Y-108224725D01*
X159326303Y-108125010D01*
X159326303Y-107020966D01*
X159333958Y-107019858D01*
X159333961Y-107019857D01*
X159333967Y-107019856D01*
X159360211Y-107010569D01*
X159383451Y-107002346D01*
X159383460Y-107002342D01*
X159400002Y-106996488D01*
X159415077Y-106987524D01*
X159418316Y-106986006D01*
X159433130Y-106983019D01*
X159433143Y-106983014D01*
X159433156Y-106983011D01*
X159464724Y-106969835D01*
X159481580Y-106962801D01*
X159481595Y-106962793D01*
X159497798Y-106956030D01*
X159512349Y-106946251D01*
X159515489Y-106944562D01*
X159530115Y-106940761D01*
X159530130Y-106940754D01*
X159530148Y-106940749D01*
X159555674Y-106928397D01*
X159577376Y-106917899D01*
X159577402Y-106917883D01*
X159593201Y-106910238D01*
X159607179Y-106899678D01*
X159610233Y-106897810D01*
X159624609Y-106893214D01*
X159624620Y-106893208D01*
X159624635Y-106893203D01*
X159653454Y-106877238D01*
X159670535Y-106867778D01*
X159670552Y-106867767D01*
X159685909Y-106859259D01*
X159699289Y-106847938D01*
X159702227Y-106845911D01*
X159716352Y-106840518D01*
X159716363Y-106840511D01*
X159716374Y-106840507D01*
X159740540Y-106825318D01*
X159760804Y-106812584D01*
X159760822Y-106812570D01*
X159763682Y-106810773D01*
X159758100Y-106838834D01*
G37*
G04 #@! TD.AperFunction*
D12*
X164198814Y-99860283D02*
X165084747Y-100112270D01*
X165382115Y-100254601D01*
X165320343Y-100316373D01*
X165256935Y-100411270D01*
X165213258Y-100516714D01*
X165190992Y-100628653D01*
X165190992Y-100742785D01*
X165194217Y-100759000D01*
X164818330Y-101134888D01*
X163416667Y-101134888D01*
X163399214Y-101133169D01*
X163381761Y-101134888D01*
X163381752Y-101134888D01*
X163329505Y-101140034D01*
X163262475Y-101160367D01*
X163200699Y-101193387D01*
X163195139Y-101197950D01*
X163160115Y-101226693D01*
X163160110Y-101226698D01*
X163146552Y-101237825D01*
X163135425Y-101251383D01*
X162193879Y-102192931D01*
X162180315Y-102204063D01*
X162135877Y-102258210D01*
X162102857Y-102319986D01*
X162093584Y-102350555D01*
X162083298Y-102384466D01*
X162082524Y-102387016D01*
X162077378Y-102439263D01*
X162077378Y-102439270D01*
X162075659Y-102456725D01*
X162076778Y-102468084D01*
X160840647Y-101231954D01*
X160840647Y-101187724D01*
X160854393Y-101178539D01*
X160935096Y-101097836D01*
X160998504Y-101002939D01*
X161042181Y-100897495D01*
X161064447Y-100785556D01*
X161064447Y-100671424D01*
X161042181Y-100559485D01*
X160998504Y-100454041D01*
X160935096Y-100359144D01*
X160860789Y-100284837D01*
X161467093Y-100028442D01*
X162363750Y-99817760D01*
X163283084Y-99761168D01*
X164198814Y-99860283D01*
G04 #@! TA.AperFunction,Conductor*
D13*
G36*
X164198814Y-99860283D02*
G01*
X165084747Y-100112270D01*
X165382115Y-100254601D01*
X165320343Y-100316373D01*
X165256935Y-100411270D01*
X165213258Y-100516714D01*
X165190992Y-100628653D01*
X165190992Y-100742785D01*
X165194217Y-100759000D01*
X164818330Y-101134888D01*
X163416667Y-101134888D01*
X163399214Y-101133169D01*
X163381761Y-101134888D01*
X163381752Y-101134888D01*
X163329505Y-101140034D01*
X163262475Y-101160367D01*
X163200699Y-101193387D01*
X163195139Y-101197950D01*
X163160115Y-101226693D01*
X163160110Y-101226698D01*
X163146552Y-101237825D01*
X163135425Y-101251383D01*
X162193879Y-102192931D01*
X162180315Y-102204063D01*
X162135877Y-102258210D01*
X162102857Y-102319986D01*
X162093584Y-102350555D01*
X162083298Y-102384466D01*
X162082524Y-102387016D01*
X162077378Y-102439263D01*
X162077378Y-102439270D01*
X162075659Y-102456725D01*
X162076778Y-102468084D01*
X160840647Y-101231954D01*
X160840647Y-101187724D01*
X160854393Y-101178539D01*
X160935096Y-101097836D01*
X160998504Y-101002939D01*
X161042181Y-100897495D01*
X161064447Y-100785556D01*
X161064447Y-100671424D01*
X161042181Y-100559485D01*
X160998504Y-100454041D01*
X160935096Y-100359144D01*
X160860789Y-100284837D01*
X161467093Y-100028442D01*
X162363750Y-99817760D01*
X163283084Y-99761168D01*
X164198814Y-99860283D01*
G37*
G04 #@! TD.AperFunction*
M02*
