G04 #@! TF.GenerationSoftware,KiCad,Pcbnew,(5.1.7)-1*
G04 #@! TF.CreationDate,2021-10-31T20:58:24-07:00*
G04 #@! TF.ProjectId,tiny_trollerV2,74696e79-5f74-4726-9f6c-6c657256322e,rev?*
G04 #@! TF.SameCoordinates,Original*
G04 #@! TF.FileFunction,Soldermask,Top*
G04 #@! TF.FilePolarity,Negative*
%FSLAX46Y46*%
G04 Gerber Fmt 4.6, Leading zero omitted, Abs format (unit mm)*
G04 Created by KiCad (PCBNEW (5.1.7)-1) date 2021-10-31 20:58:24*
%MOMM*%
%LPD*%
G01*
G04 APERTURE LIST*
%ADD10C,0.150000*%
%ADD11R,0.807999X0.305600*%
%ADD12C,1.000000*%
G04 APERTURE END LIST*
G36*
G01*
X160744225Y-109319320D02*
X160500273Y-109563272D01*
G75*
G02*
X160291677Y-109563272I-104298J104298D01*
G01*
X160083081Y-109354676D01*
G75*
G02*
X160083081Y-109146080I104298J104298D01*
G01*
X160327033Y-108902128D01*
G75*
G02*
X160535629Y-108902128I104298J-104298D01*
G01*
X160744225Y-109110724D01*
G75*
G02*
X160744225Y-109319320I-104298J-104298D01*
G01*
G37*
G36*
G01*
X161430119Y-110005214D02*
X161186167Y-110249166D01*
G75*
G02*
X160977571Y-110249166I-104298J104298D01*
G01*
X160768975Y-110040570D01*
G75*
G02*
X160768975Y-109831974I104298J104298D01*
G01*
X161012927Y-109588022D01*
G75*
G02*
X161221523Y-109588022I104298J-104298D01*
G01*
X161430119Y-109796618D01*
G75*
G02*
X161430119Y-110005214I-104298J-104298D01*
G01*
G37*
D10*
G36*
X163255718Y-105654962D02*
G01*
X163253407Y-105650640D01*
X163251985Y-105645950D01*
X163251504Y-105641073D01*
X163251504Y-105389626D01*
X163251985Y-105384748D01*
X163253407Y-105380058D01*
X163255718Y-105375736D01*
X163258827Y-105371948D01*
X163483333Y-105147441D01*
X163487121Y-105144332D01*
X163491444Y-105142022D01*
X163496133Y-105140599D01*
X163501011Y-105140119D01*
X163505888Y-105140599D01*
X163510578Y-105142022D01*
X163514900Y-105144332D01*
X163518688Y-105147441D01*
X163734215Y-105362968D01*
X163737324Y-105366756D01*
X163739634Y-105371078D01*
X163741057Y-105375768D01*
X163741537Y-105380645D01*
X163741057Y-105385523D01*
X163739634Y-105390212D01*
X163737324Y-105394535D01*
X163734215Y-105398323D01*
X163383985Y-105748553D01*
X163380197Y-105751662D01*
X163375874Y-105753972D01*
X163371185Y-105755395D01*
X163366307Y-105755876D01*
X163361429Y-105755395D01*
X163356740Y-105753972D01*
X163352417Y-105751662D01*
X163348629Y-105748553D01*
X163258827Y-105658750D01*
X163255718Y-105654962D01*
G37*
G36*
X163453282Y-105924370D02*
G01*
X163450972Y-105920047D01*
X163449550Y-105915358D01*
X163449069Y-105910480D01*
X163449550Y-105905602D01*
X163450972Y-105900913D01*
X163453282Y-105896590D01*
X163456392Y-105892802D01*
X163842543Y-105506651D01*
X163846331Y-105503542D01*
X163850653Y-105501232D01*
X163855343Y-105499809D01*
X163860220Y-105499329D01*
X163865098Y-105499809D01*
X163869787Y-105501232D01*
X163874110Y-105503542D01*
X163877898Y-105506651D01*
X164084444Y-105713197D01*
X164087553Y-105716985D01*
X164089863Y-105721308D01*
X164091286Y-105725997D01*
X164091767Y-105730875D01*
X164091286Y-105735753D01*
X164089863Y-105740442D01*
X164087553Y-105744765D01*
X164084444Y-105748553D01*
X163698293Y-106134704D01*
X163694505Y-106137813D01*
X163690182Y-106140123D01*
X163685493Y-106141546D01*
X163680615Y-106142026D01*
X163675738Y-106141546D01*
X163671048Y-106140123D01*
X163666725Y-106137813D01*
X163662937Y-106134704D01*
X163456392Y-105928158D01*
X163453282Y-105924370D01*
G37*
G36*
X163803512Y-106274600D02*
G01*
X163801202Y-106270278D01*
X163799779Y-106265588D01*
X163799299Y-106260710D01*
X163799779Y-106255833D01*
X163801202Y-106251143D01*
X163803512Y-106246821D01*
X163806621Y-106243033D01*
X164192772Y-105856882D01*
X164196560Y-105853773D01*
X164200883Y-105851462D01*
X164205572Y-105850040D01*
X164210450Y-105849559D01*
X164215328Y-105850040D01*
X164220017Y-105851462D01*
X164224340Y-105853773D01*
X164228128Y-105856882D01*
X164434674Y-106063428D01*
X164437783Y-106067216D01*
X164440093Y-106071538D01*
X164441516Y-106076228D01*
X164441996Y-106081105D01*
X164441516Y-106085983D01*
X164440093Y-106090672D01*
X164437783Y-106094995D01*
X164434674Y-106098783D01*
X164048523Y-106484934D01*
X164044735Y-106488043D01*
X164040412Y-106490353D01*
X164035723Y-106491776D01*
X164030845Y-106492257D01*
X164025967Y-106491776D01*
X164021278Y-106490353D01*
X164016955Y-106488043D01*
X164013167Y-106484934D01*
X163806621Y-106278388D01*
X163803512Y-106274600D01*
G37*
G36*
X164153742Y-106624830D02*
G01*
X164151432Y-106620508D01*
X164150009Y-106615818D01*
X164149529Y-106610940D01*
X164150009Y-106606063D01*
X164151432Y-106601373D01*
X164153742Y-106597051D01*
X164156851Y-106593263D01*
X164543002Y-106207112D01*
X164546790Y-106204003D01*
X164551113Y-106201692D01*
X164555802Y-106200270D01*
X164560680Y-106199789D01*
X164565558Y-106200270D01*
X164570247Y-106201692D01*
X164574570Y-106204003D01*
X164578358Y-106207112D01*
X164784904Y-106413658D01*
X164788013Y-106417446D01*
X164790323Y-106421768D01*
X164791746Y-106426458D01*
X164792226Y-106431335D01*
X164791746Y-106436213D01*
X164790323Y-106440902D01*
X164788013Y-106445225D01*
X164784904Y-106449013D01*
X164398753Y-106835164D01*
X164394965Y-106838273D01*
X164390642Y-106840583D01*
X164385953Y-106842006D01*
X164381075Y-106842487D01*
X164376197Y-106842006D01*
X164371508Y-106840583D01*
X164367185Y-106838273D01*
X164363397Y-106835164D01*
X164156851Y-106628618D01*
X164153742Y-106624830D01*
G37*
G36*
X164512953Y-106984040D02*
G01*
X164510643Y-106979718D01*
X164509220Y-106975028D01*
X164508740Y-106970150D01*
X164509220Y-106965273D01*
X164510643Y-106960583D01*
X164512953Y-106956261D01*
X164516062Y-106952473D01*
X164902213Y-106566322D01*
X164906001Y-106563213D01*
X164910324Y-106560902D01*
X164915013Y-106559480D01*
X164919891Y-106558999D01*
X164924769Y-106559480D01*
X164929458Y-106560902D01*
X164933781Y-106563213D01*
X164937569Y-106566322D01*
X165144115Y-106772868D01*
X165147224Y-106776656D01*
X165149534Y-106780978D01*
X165150957Y-106785668D01*
X165151437Y-106790545D01*
X165150957Y-106795423D01*
X165149534Y-106800112D01*
X165147224Y-106804435D01*
X165144115Y-106808223D01*
X164757964Y-107194374D01*
X164754176Y-107197483D01*
X164749853Y-107199793D01*
X164745164Y-107201216D01*
X164740286Y-107201697D01*
X164735408Y-107201216D01*
X164730719Y-107199793D01*
X164726396Y-107197483D01*
X164722608Y-107194374D01*
X164516062Y-106987828D01*
X164512953Y-106984040D01*
G37*
G36*
X164863183Y-107334270D02*
G01*
X164860873Y-107329948D01*
X164859450Y-107325258D01*
X164858970Y-107320380D01*
X164859450Y-107315503D01*
X164860873Y-107310813D01*
X164863183Y-107306491D01*
X164866292Y-107302703D01*
X165252443Y-106916552D01*
X165256231Y-106913443D01*
X165260554Y-106911132D01*
X165265243Y-106909710D01*
X165270121Y-106909229D01*
X165274999Y-106909710D01*
X165279688Y-106911132D01*
X165284011Y-106913443D01*
X165287799Y-106916552D01*
X165494345Y-107123098D01*
X165497454Y-107126886D01*
X165499764Y-107131208D01*
X165501187Y-107135898D01*
X165501667Y-107140775D01*
X165501187Y-107145653D01*
X165499764Y-107150342D01*
X165497454Y-107154665D01*
X165494345Y-107158453D01*
X165108194Y-107544604D01*
X165104406Y-107547713D01*
X165100083Y-107550023D01*
X165095394Y-107551446D01*
X165090516Y-107551927D01*
X165085638Y-107551446D01*
X165080949Y-107550023D01*
X165076626Y-107547713D01*
X165072838Y-107544604D01*
X164866292Y-107338058D01*
X164863183Y-107334270D01*
G37*
G36*
X165249334Y-107648579D02*
G01*
X165247024Y-107644256D01*
X165245601Y-107639566D01*
X165245121Y-107634689D01*
X165245601Y-107629811D01*
X165247024Y-107625122D01*
X165249334Y-107620799D01*
X165252443Y-107617011D01*
X165602673Y-107266781D01*
X165606461Y-107263672D01*
X165610784Y-107261362D01*
X165615473Y-107259939D01*
X165620351Y-107259458D01*
X165625229Y-107259939D01*
X165629918Y-107261362D01*
X165634241Y-107263672D01*
X165638029Y-107266781D01*
X165853555Y-107482307D01*
X165856664Y-107486095D01*
X165858974Y-107490418D01*
X165860397Y-107495107D01*
X165860878Y-107499985D01*
X165860397Y-107504863D01*
X165858974Y-107509552D01*
X165856664Y-107513875D01*
X165853555Y-107517663D01*
X165629048Y-107742169D01*
X165625260Y-107745278D01*
X165620938Y-107747588D01*
X165616248Y-107749011D01*
X165611371Y-107749492D01*
X165359924Y-107749492D01*
X165355046Y-107749011D01*
X165350356Y-107747588D01*
X165346034Y-107745278D01*
X165342246Y-107742169D01*
X165252443Y-107652367D01*
X165249334Y-107648579D01*
G37*
G36*
X162564237Y-105394535D02*
G01*
X162561927Y-105390212D01*
X162560504Y-105385523D01*
X162560023Y-105380645D01*
X162560504Y-105375767D01*
X162561927Y-105371078D01*
X162564237Y-105366755D01*
X162567346Y-105362967D01*
X162782872Y-105147441D01*
X162786660Y-105144332D01*
X162790983Y-105142022D01*
X162795672Y-105140599D01*
X162800550Y-105140118D01*
X162805428Y-105140599D01*
X162810117Y-105142022D01*
X162814440Y-105144332D01*
X162818228Y-105147441D01*
X163042734Y-105371948D01*
X163045843Y-105375736D01*
X163048153Y-105380058D01*
X163049576Y-105384748D01*
X163050057Y-105389625D01*
X163050057Y-105641072D01*
X163049576Y-105645950D01*
X163048153Y-105650640D01*
X163045843Y-105654962D01*
X163042734Y-105658750D01*
X162952932Y-105748553D01*
X162949144Y-105751662D01*
X162944821Y-105753972D01*
X162940131Y-105755395D01*
X162935254Y-105755875D01*
X162930376Y-105755395D01*
X162925687Y-105753972D01*
X162921364Y-105751662D01*
X162917576Y-105748553D01*
X162567346Y-105398323D01*
X162564237Y-105394535D01*
G37*
G36*
X162214007Y-105744765D02*
G01*
X162211697Y-105740442D01*
X162210274Y-105735753D01*
X162209793Y-105730875D01*
X162210274Y-105725997D01*
X162211697Y-105721308D01*
X162214007Y-105716985D01*
X162217116Y-105713197D01*
X162423662Y-105506651D01*
X162427450Y-105503542D01*
X162431773Y-105501232D01*
X162436462Y-105499809D01*
X162441340Y-105499329D01*
X162446217Y-105499809D01*
X162450907Y-105501232D01*
X162455229Y-105503542D01*
X162459017Y-105506651D01*
X162845168Y-105892802D01*
X162848278Y-105896590D01*
X162850588Y-105900913D01*
X162852010Y-105905602D01*
X162852491Y-105910480D01*
X162852010Y-105915358D01*
X162850588Y-105920047D01*
X162848278Y-105924370D01*
X162845168Y-105928158D01*
X162638623Y-106134704D01*
X162634835Y-106137813D01*
X162630512Y-106140123D01*
X162625822Y-106141546D01*
X162620945Y-106142026D01*
X162616067Y-106141546D01*
X162611378Y-106140123D01*
X162607055Y-106137813D01*
X162603267Y-106134704D01*
X162217116Y-105748553D01*
X162214007Y-105744765D01*
G37*
G36*
X161863777Y-106094995D02*
G01*
X161861467Y-106090672D01*
X161860045Y-106085983D01*
X161859564Y-106081105D01*
X161860045Y-106076227D01*
X161861467Y-106071538D01*
X161863777Y-106067215D01*
X161866887Y-106063427D01*
X162073432Y-105856882D01*
X162077220Y-105853772D01*
X162081543Y-105851462D01*
X162086233Y-105850040D01*
X162091110Y-105849559D01*
X162095988Y-105850040D01*
X162100677Y-105851462D01*
X162105000Y-105853772D01*
X162108788Y-105856882D01*
X162494939Y-106243033D01*
X162498048Y-106246821D01*
X162500358Y-106251143D01*
X162501781Y-106255833D01*
X162502262Y-106260710D01*
X162501781Y-106265588D01*
X162500358Y-106270277D01*
X162498048Y-106274600D01*
X162494939Y-106278388D01*
X162288393Y-106484934D01*
X162284605Y-106488043D01*
X162280282Y-106490353D01*
X162275593Y-106491776D01*
X162270715Y-106492257D01*
X162265838Y-106491776D01*
X162261148Y-106490353D01*
X162256826Y-106488043D01*
X162253038Y-106484934D01*
X161866887Y-106098783D01*
X161863777Y-106094995D01*
G37*
G36*
X161513548Y-106445225D02*
G01*
X161511237Y-106440902D01*
X161509815Y-106436213D01*
X161509334Y-106431335D01*
X161509815Y-106426457D01*
X161511237Y-106421768D01*
X161513548Y-106417445D01*
X161516657Y-106413657D01*
X161723203Y-106207111D01*
X161726991Y-106204002D01*
X161731313Y-106201692D01*
X161736003Y-106200269D01*
X161740880Y-106199789D01*
X161745758Y-106200269D01*
X161750447Y-106201692D01*
X161754770Y-106204002D01*
X161758558Y-106207111D01*
X162144709Y-106593262D01*
X162147818Y-106597050D01*
X162150128Y-106601373D01*
X162151551Y-106606062D01*
X162152032Y-106610940D01*
X162151551Y-106615818D01*
X162150128Y-106620507D01*
X162147818Y-106624830D01*
X162144709Y-106628618D01*
X161938163Y-106835164D01*
X161934375Y-106838273D01*
X161930053Y-106840583D01*
X161925363Y-106842006D01*
X161920485Y-106842486D01*
X161915608Y-106842006D01*
X161910918Y-106840583D01*
X161906596Y-106838273D01*
X161902808Y-106835164D01*
X161516657Y-106449013D01*
X161513548Y-106445225D01*
G37*
G36*
X161154338Y-106804435D02*
G01*
X161152027Y-106800112D01*
X161150605Y-106795423D01*
X161150124Y-106790545D01*
X161150605Y-106785667D01*
X161152027Y-106780978D01*
X161154338Y-106776655D01*
X161157447Y-106772867D01*
X161363993Y-106566321D01*
X161367781Y-106563212D01*
X161372103Y-106560902D01*
X161376793Y-106559479D01*
X161381670Y-106558999D01*
X161386548Y-106559479D01*
X161391237Y-106560902D01*
X161395560Y-106563212D01*
X161399348Y-106566321D01*
X161785499Y-106952472D01*
X161788608Y-106956260D01*
X161790918Y-106960583D01*
X161792341Y-106965272D01*
X161792822Y-106970150D01*
X161792341Y-106975028D01*
X161790918Y-106979717D01*
X161788608Y-106984040D01*
X161785499Y-106987828D01*
X161578953Y-107194374D01*
X161575165Y-107197483D01*
X161570843Y-107199793D01*
X161566153Y-107201216D01*
X161561275Y-107201696D01*
X161556398Y-107201216D01*
X161551708Y-107199793D01*
X161547386Y-107197483D01*
X161543598Y-107194374D01*
X161157447Y-106808223D01*
X161154338Y-106804435D01*
G37*
G36*
X160804107Y-107154665D02*
G01*
X160801797Y-107150342D01*
X160800375Y-107145653D01*
X160799894Y-107140775D01*
X160800375Y-107135897D01*
X160801797Y-107131208D01*
X160804107Y-107126885D01*
X160807217Y-107123097D01*
X161013763Y-106916551D01*
X161017551Y-106913442D01*
X161021873Y-106911132D01*
X161026563Y-106909710D01*
X161031440Y-106909229D01*
X161036318Y-106909710D01*
X161041007Y-106911132D01*
X161045330Y-106913442D01*
X161049118Y-106916551D01*
X161435269Y-107302703D01*
X161438378Y-107306490D01*
X161440688Y-107310813D01*
X161442111Y-107315503D01*
X161442592Y-107320380D01*
X161442111Y-107325258D01*
X161440688Y-107329947D01*
X161438378Y-107334270D01*
X161435269Y-107338058D01*
X161228723Y-107544604D01*
X161224935Y-107547713D01*
X161220612Y-107550023D01*
X161215923Y-107551446D01*
X161211045Y-107551927D01*
X161206168Y-107551446D01*
X161201478Y-107550023D01*
X161197156Y-107547713D01*
X161193368Y-107544604D01*
X160807217Y-107158453D01*
X160804107Y-107154665D01*
G37*
G36*
X160444897Y-107513875D02*
G01*
X160442587Y-107509552D01*
X160441164Y-107504863D01*
X160440683Y-107499985D01*
X160441164Y-107495107D01*
X160442587Y-107490418D01*
X160444897Y-107486095D01*
X160448006Y-107482307D01*
X160663532Y-107266781D01*
X160667320Y-107263672D01*
X160671643Y-107261362D01*
X160676332Y-107259939D01*
X160681210Y-107259458D01*
X160686088Y-107259939D01*
X160690777Y-107261362D01*
X160695100Y-107263672D01*
X160698888Y-107266781D01*
X161049118Y-107617011D01*
X161052227Y-107620799D01*
X161054537Y-107625122D01*
X161055960Y-107629811D01*
X161056441Y-107634689D01*
X161055960Y-107639566D01*
X161054537Y-107644256D01*
X161052227Y-107648578D01*
X161049118Y-107652366D01*
X160959315Y-107742169D01*
X160955527Y-107745278D01*
X160951205Y-107747588D01*
X160946515Y-107749011D01*
X160941637Y-107749492D01*
X160690190Y-107749492D01*
X160685313Y-107749011D01*
X160680623Y-107747588D01*
X160676301Y-107745278D01*
X160672513Y-107742169D01*
X160448006Y-107517663D01*
X160444897Y-107513875D01*
G37*
G36*
X160444897Y-108214335D02*
G01*
X160442587Y-108210012D01*
X160441164Y-108205323D01*
X160440683Y-108200445D01*
X160441164Y-108195568D01*
X160442587Y-108190878D01*
X160444897Y-108186556D01*
X160448006Y-108182768D01*
X160672512Y-107958261D01*
X160676300Y-107955152D01*
X160680623Y-107952842D01*
X160685312Y-107951419D01*
X160690190Y-107950938D01*
X160941637Y-107950938D01*
X160946515Y-107951419D01*
X160951204Y-107952842D01*
X160955527Y-107955152D01*
X160959315Y-107958261D01*
X161049117Y-108048064D01*
X161052227Y-108051852D01*
X161054537Y-108056174D01*
X161055959Y-108060864D01*
X161056440Y-108065741D01*
X161055959Y-108070619D01*
X161054537Y-108075309D01*
X161052227Y-108079631D01*
X161049117Y-108083419D01*
X160698887Y-108433649D01*
X160695099Y-108436758D01*
X160690777Y-108439068D01*
X160686087Y-108440491D01*
X160681210Y-108440972D01*
X160676332Y-108440491D01*
X160671643Y-108439068D01*
X160667320Y-108436758D01*
X160663532Y-108433649D01*
X160448006Y-108218123D01*
X160444897Y-108214335D01*
G37*
G36*
X160804107Y-108573545D02*
G01*
X160801797Y-108569222D01*
X160800374Y-108564533D01*
X160799894Y-108559655D01*
X160800374Y-108554778D01*
X160801797Y-108550088D01*
X160804107Y-108545766D01*
X160807216Y-108541978D01*
X161193367Y-108155827D01*
X161197155Y-108152717D01*
X161201478Y-108150407D01*
X161206167Y-108148985D01*
X161211045Y-108148504D01*
X161215923Y-108148985D01*
X161220612Y-108150407D01*
X161224935Y-108152717D01*
X161228723Y-108155827D01*
X161435269Y-108362372D01*
X161438378Y-108366160D01*
X161440688Y-108370483D01*
X161442111Y-108375173D01*
X161442591Y-108380050D01*
X161442111Y-108384928D01*
X161440688Y-108389617D01*
X161438378Y-108393940D01*
X161435269Y-108397728D01*
X161049118Y-108783879D01*
X161045330Y-108786988D01*
X161041007Y-108789298D01*
X161036318Y-108790721D01*
X161031440Y-108791202D01*
X161026562Y-108790721D01*
X161021873Y-108789298D01*
X161017550Y-108786988D01*
X161013762Y-108783879D01*
X160807216Y-108577333D01*
X160804107Y-108573545D01*
G37*
G36*
X161154338Y-108923775D02*
G01*
X161152027Y-108919452D01*
X161150605Y-108914763D01*
X161150124Y-108909885D01*
X161150605Y-108905007D01*
X161152027Y-108900318D01*
X161154338Y-108895995D01*
X161157447Y-108892207D01*
X161543598Y-108506056D01*
X161547386Y-108502947D01*
X161551708Y-108500637D01*
X161556398Y-108499214D01*
X161561275Y-108498734D01*
X161566153Y-108499214D01*
X161570843Y-108500637D01*
X161575165Y-108502947D01*
X161578953Y-108506056D01*
X161785499Y-108712602D01*
X161788608Y-108716390D01*
X161790918Y-108720713D01*
X161792341Y-108725402D01*
X161792822Y-108730280D01*
X161792341Y-108735158D01*
X161790918Y-108739847D01*
X161788608Y-108744170D01*
X161785499Y-108747958D01*
X161399348Y-109134109D01*
X161395560Y-109137218D01*
X161391237Y-109139528D01*
X161386548Y-109140951D01*
X161381670Y-109141431D01*
X161376793Y-109140951D01*
X161372103Y-109139528D01*
X161367781Y-109137218D01*
X161363993Y-109134109D01*
X161157447Y-108927563D01*
X161154338Y-108923775D01*
G37*
G36*
X161513548Y-109282986D02*
G01*
X161511237Y-109278663D01*
X161509815Y-109273974D01*
X161509334Y-109269096D01*
X161509815Y-109264218D01*
X161511237Y-109259529D01*
X161513548Y-109255206D01*
X161516657Y-109251418D01*
X161902808Y-108865267D01*
X161906596Y-108862158D01*
X161910918Y-108859848D01*
X161915608Y-108858425D01*
X161920485Y-108857945D01*
X161925363Y-108858425D01*
X161930053Y-108859848D01*
X161934375Y-108862158D01*
X161938163Y-108865267D01*
X162144709Y-109071813D01*
X162147818Y-109075601D01*
X162150128Y-109079924D01*
X162151551Y-109084613D01*
X162152032Y-109089491D01*
X162151551Y-109094369D01*
X162150128Y-109099058D01*
X162147818Y-109103381D01*
X162144709Y-109107169D01*
X161758558Y-109493320D01*
X161754770Y-109496429D01*
X161750447Y-109498739D01*
X161745758Y-109500162D01*
X161740880Y-109500642D01*
X161736003Y-109500162D01*
X161731313Y-109498739D01*
X161726991Y-109496429D01*
X161723203Y-109493320D01*
X161516657Y-109286774D01*
X161513548Y-109282986D01*
G37*
G36*
X161863778Y-109633216D02*
G01*
X161861467Y-109628893D01*
X161860045Y-109624204D01*
X161859564Y-109619326D01*
X161860045Y-109614448D01*
X161861467Y-109609759D01*
X161863778Y-109605436D01*
X161866887Y-109601648D01*
X162253038Y-109215497D01*
X162256826Y-109212388D01*
X162261148Y-109210078D01*
X162265838Y-109208655D01*
X162270715Y-109208175D01*
X162275593Y-109208655D01*
X162280283Y-109210078D01*
X162284605Y-109212388D01*
X162288393Y-109215497D01*
X162494939Y-109422043D01*
X162498048Y-109425831D01*
X162500358Y-109430154D01*
X162501781Y-109434843D01*
X162502262Y-109439721D01*
X162501781Y-109444599D01*
X162500358Y-109449288D01*
X162498048Y-109453611D01*
X162494939Y-109457399D01*
X162108788Y-109843550D01*
X162105000Y-109846659D01*
X162100677Y-109848969D01*
X162095988Y-109850392D01*
X162091110Y-109850872D01*
X162086233Y-109850392D01*
X162081543Y-109848969D01*
X162077221Y-109846659D01*
X162073433Y-109843550D01*
X161866887Y-109637004D01*
X161863778Y-109633216D01*
G37*
G36*
X162214008Y-109983446D02*
G01*
X162211697Y-109979123D01*
X162210275Y-109974434D01*
X162209794Y-109969556D01*
X162210275Y-109964678D01*
X162211697Y-109959989D01*
X162214008Y-109955666D01*
X162217117Y-109951878D01*
X162603268Y-109565727D01*
X162607056Y-109562618D01*
X162611378Y-109560308D01*
X162616068Y-109558885D01*
X162620945Y-109558405D01*
X162625823Y-109558885D01*
X162630513Y-109560308D01*
X162634835Y-109562618D01*
X162638623Y-109565727D01*
X162845169Y-109772273D01*
X162848278Y-109776061D01*
X162850588Y-109780384D01*
X162852011Y-109785073D01*
X162852492Y-109789951D01*
X162852011Y-109794829D01*
X162850588Y-109799518D01*
X162848278Y-109803841D01*
X162845169Y-109807629D01*
X162459018Y-110193780D01*
X162455230Y-110196889D01*
X162450907Y-110199199D01*
X162446218Y-110200622D01*
X162441340Y-110201102D01*
X162436463Y-110200622D01*
X162431773Y-110199199D01*
X162427451Y-110196889D01*
X162423663Y-110193780D01*
X162217117Y-109987234D01*
X162214008Y-109983446D01*
G37*
G36*
X162564237Y-110333676D02*
G01*
X162561927Y-110329353D01*
X162560505Y-110324664D01*
X162560024Y-110319786D01*
X162560505Y-110314908D01*
X162561927Y-110310219D01*
X162564237Y-110305896D01*
X162567347Y-110302108D01*
X162917577Y-109951878D01*
X162921365Y-109948769D01*
X162925687Y-109946459D01*
X162930377Y-109945036D01*
X162935254Y-109944555D01*
X162940132Y-109945036D01*
X162944821Y-109946459D01*
X162949144Y-109948769D01*
X162952932Y-109951878D01*
X163042735Y-110041681D01*
X163045844Y-110045469D01*
X163048154Y-110049791D01*
X163049576Y-110054481D01*
X163050057Y-110059359D01*
X163050057Y-110310806D01*
X163049576Y-110315683D01*
X163048154Y-110320373D01*
X163045844Y-110324695D01*
X163042735Y-110328483D01*
X162818228Y-110552990D01*
X162814440Y-110556099D01*
X162810118Y-110558409D01*
X162805428Y-110559832D01*
X162800550Y-110560313D01*
X162795673Y-110559832D01*
X162790983Y-110558409D01*
X162786661Y-110556099D01*
X162782873Y-110552990D01*
X162567347Y-110337464D01*
X162564237Y-110333676D01*
G37*
G36*
X165249334Y-108079631D02*
G01*
X165247024Y-108075308D01*
X165245601Y-108070619D01*
X165245121Y-108065741D01*
X165245601Y-108060864D01*
X165247024Y-108056174D01*
X165249334Y-108051851D01*
X165252443Y-108048063D01*
X165342246Y-107958261D01*
X165346034Y-107955152D01*
X165350356Y-107952842D01*
X165355046Y-107951419D01*
X165359924Y-107950938D01*
X165611371Y-107950938D01*
X165616248Y-107951419D01*
X165620938Y-107952842D01*
X165625260Y-107955152D01*
X165629048Y-107958261D01*
X165853555Y-108182767D01*
X165856664Y-108186555D01*
X165858974Y-108190878D01*
X165860397Y-108195567D01*
X165860878Y-108200445D01*
X165860397Y-108205323D01*
X165858974Y-108210012D01*
X165856664Y-108214335D01*
X165853555Y-108218123D01*
X165638029Y-108433649D01*
X165634241Y-108436758D01*
X165629918Y-108439068D01*
X165625229Y-108440491D01*
X165620351Y-108440972D01*
X165615473Y-108440491D01*
X165610784Y-108439068D01*
X165606461Y-108436758D01*
X165602673Y-108433649D01*
X165252443Y-108083419D01*
X165249334Y-108079631D01*
G37*
G36*
X164863182Y-108393940D02*
G01*
X164860872Y-108389617D01*
X164859450Y-108384928D01*
X164858969Y-108380050D01*
X164859450Y-108375172D01*
X164860872Y-108370483D01*
X164863182Y-108366160D01*
X164866292Y-108362372D01*
X165072837Y-108155826D01*
X165076625Y-108152717D01*
X165080948Y-108150407D01*
X165085638Y-108148984D01*
X165090515Y-108148504D01*
X165095393Y-108148984D01*
X165100082Y-108150407D01*
X165104405Y-108152717D01*
X165108193Y-108155826D01*
X165494344Y-108541977D01*
X165497453Y-108545765D01*
X165499763Y-108550088D01*
X165501186Y-108554777D01*
X165501667Y-108559655D01*
X165501186Y-108564533D01*
X165499763Y-108569222D01*
X165497453Y-108573545D01*
X165494344Y-108577333D01*
X165287798Y-108783879D01*
X165284010Y-108786988D01*
X165279687Y-108789298D01*
X165274998Y-108790721D01*
X165270120Y-108791201D01*
X165265243Y-108790721D01*
X165260553Y-108789298D01*
X165256231Y-108786988D01*
X165252443Y-108783879D01*
X164866292Y-108397728D01*
X164863182Y-108393940D01*
G37*
G36*
X164512953Y-108744170D02*
G01*
X164510643Y-108739847D01*
X164509221Y-108735158D01*
X164508740Y-108730280D01*
X164509221Y-108725402D01*
X164510643Y-108720713D01*
X164512953Y-108716390D01*
X164516062Y-108712602D01*
X164722608Y-108506056D01*
X164726396Y-108502947D01*
X164730719Y-108500637D01*
X164735408Y-108499214D01*
X164740286Y-108498734D01*
X164745164Y-108499214D01*
X164749853Y-108500637D01*
X164754176Y-108502947D01*
X164757964Y-108506056D01*
X165144115Y-108892207D01*
X165147224Y-108895995D01*
X165149534Y-108900318D01*
X165150957Y-108905007D01*
X165151438Y-108909885D01*
X165150957Y-108914763D01*
X165149534Y-108919452D01*
X165147224Y-108923775D01*
X165144115Y-108927563D01*
X164937569Y-109134109D01*
X164933781Y-109137218D01*
X164929458Y-109139528D01*
X164924769Y-109140951D01*
X164919891Y-109141431D01*
X164915014Y-109140951D01*
X164910324Y-109139528D01*
X164906001Y-109137218D01*
X164902213Y-109134109D01*
X164516062Y-108747958D01*
X164512953Y-108744170D01*
G37*
G36*
X164162722Y-109094400D02*
G01*
X164160412Y-109090077D01*
X164158990Y-109085388D01*
X164158509Y-109080510D01*
X164158990Y-109075632D01*
X164160412Y-109070943D01*
X164162722Y-109066620D01*
X164165832Y-109062832D01*
X164372377Y-108856286D01*
X164376165Y-108853177D01*
X164380488Y-108850867D01*
X164385178Y-108849444D01*
X164390055Y-108848964D01*
X164394933Y-108849444D01*
X164399622Y-108850867D01*
X164403945Y-108853177D01*
X164407733Y-108856286D01*
X164793884Y-109242437D01*
X164796993Y-109246225D01*
X164799303Y-109250548D01*
X164800726Y-109255237D01*
X164801207Y-109260115D01*
X164800726Y-109264993D01*
X164799303Y-109269682D01*
X164796993Y-109274005D01*
X164793884Y-109277793D01*
X164587338Y-109484339D01*
X164583550Y-109487448D01*
X164579227Y-109489758D01*
X164574538Y-109491181D01*
X164569660Y-109491661D01*
X164564783Y-109491181D01*
X164560093Y-109489758D01*
X164555771Y-109487448D01*
X164551983Y-109484339D01*
X164165832Y-109098188D01*
X164162722Y-109094400D01*
G37*
G36*
X163803513Y-109453610D02*
G01*
X163801203Y-109449288D01*
X163799780Y-109444598D01*
X163799299Y-109439721D01*
X163799780Y-109434843D01*
X163801203Y-109430154D01*
X163803513Y-109425831D01*
X163806622Y-109422043D01*
X164013168Y-109215497D01*
X164016956Y-109212388D01*
X164021279Y-109210078D01*
X164025968Y-109208655D01*
X164030846Y-109208174D01*
X164035723Y-109208655D01*
X164040413Y-109210078D01*
X164044735Y-109212388D01*
X164048523Y-109215497D01*
X164434674Y-109601648D01*
X164437784Y-109605436D01*
X164440094Y-109609759D01*
X164441516Y-109614448D01*
X164441997Y-109619326D01*
X164441516Y-109624204D01*
X164440094Y-109628893D01*
X164437784Y-109633216D01*
X164434674Y-109637004D01*
X164228129Y-109843549D01*
X164224341Y-109846659D01*
X164220018Y-109848969D01*
X164215328Y-109850391D01*
X164210451Y-109850872D01*
X164205573Y-109850391D01*
X164200884Y-109848969D01*
X164196561Y-109846659D01*
X164192773Y-109843549D01*
X163806622Y-109457398D01*
X163803513Y-109453610D01*
G37*
G36*
X163453282Y-109803841D02*
G01*
X163450972Y-109799518D01*
X163449550Y-109794829D01*
X163449069Y-109789951D01*
X163449550Y-109785073D01*
X163450972Y-109780384D01*
X163453282Y-109776061D01*
X163456392Y-109772273D01*
X163662937Y-109565727D01*
X163666725Y-109562618D01*
X163671048Y-109560308D01*
X163675737Y-109558885D01*
X163680615Y-109558405D01*
X163685493Y-109558885D01*
X163690182Y-109560308D01*
X163694505Y-109562618D01*
X163698293Y-109565727D01*
X164084444Y-109951878D01*
X164087553Y-109955666D01*
X164089863Y-109959989D01*
X164091286Y-109964678D01*
X164091767Y-109969556D01*
X164091286Y-109974434D01*
X164089863Y-109979123D01*
X164087553Y-109983446D01*
X164084444Y-109987234D01*
X163877898Y-110193780D01*
X163874110Y-110196889D01*
X163869787Y-110199199D01*
X163865098Y-110200622D01*
X163860220Y-110201102D01*
X163855343Y-110200622D01*
X163850653Y-110199199D01*
X163846331Y-110196889D01*
X163842543Y-110193780D01*
X163456392Y-109807629D01*
X163453282Y-109803841D01*
G37*
G36*
X163255717Y-110324695D02*
G01*
X163253407Y-110320373D01*
X163251984Y-110315683D01*
X163251503Y-110310806D01*
X163251503Y-110059359D01*
X163251984Y-110054481D01*
X163253407Y-110049791D01*
X163255717Y-110045469D01*
X163258826Y-110041681D01*
X163348629Y-109951878D01*
X163352417Y-109948769D01*
X163356739Y-109946459D01*
X163361429Y-109945036D01*
X163366306Y-109944555D01*
X163371184Y-109945036D01*
X163375873Y-109946459D01*
X163380196Y-109948769D01*
X163383984Y-109951878D01*
X163734214Y-110302108D01*
X163737323Y-110305896D01*
X163739633Y-110310219D01*
X163741056Y-110314908D01*
X163741537Y-110319786D01*
X163741056Y-110324664D01*
X163739633Y-110329353D01*
X163737323Y-110333676D01*
X163734214Y-110337464D01*
X163518688Y-110552990D01*
X163514900Y-110556099D01*
X163510577Y-110558409D01*
X163505888Y-110559832D01*
X163501010Y-110560313D01*
X163496132Y-110559832D01*
X163491443Y-110558409D01*
X163487120Y-110556099D01*
X163483332Y-110552990D01*
X163258826Y-110328483D01*
X163255717Y-110324695D01*
G37*
G36*
G01*
X161338900Y-104716800D02*
X161338900Y-105061800D01*
G75*
G02*
X161191400Y-105209300I-147500J0D01*
G01*
X160896400Y-105209300D01*
G75*
G02*
X160748900Y-105061800I0J147500D01*
G01*
X160748900Y-104716800D01*
G75*
G02*
X160896400Y-104569300I147500J0D01*
G01*
X161191400Y-104569300D01*
G75*
G02*
X161338900Y-104716800I0J-147500D01*
G01*
G37*
G36*
G01*
X162308900Y-104716800D02*
X162308900Y-105061800D01*
G75*
G02*
X162161400Y-105209300I-147500J0D01*
G01*
X161866400Y-105209300D01*
G75*
G02*
X161718900Y-105061800I0J147500D01*
G01*
X161718900Y-104716800D01*
G75*
G02*
X161866400Y-104569300I147500J0D01*
G01*
X162161400Y-104569300D01*
G75*
G02*
X162308900Y-104716800I0J-147500D01*
G01*
G37*
D11*
X161251900Y-101155800D03*
X161251900Y-101955801D03*
X161251900Y-102755799D03*
X161251900Y-103555800D03*
X165043902Y-103555800D03*
X165043902Y-102755799D03*
X165043902Y-101955801D03*
X165043902Y-101155800D03*
G36*
G01*
X159712103Y-101571841D02*
X159467527Y-101335658D01*
G75*
G02*
X159464071Y-101137698I97252J100708D01*
G01*
X159658575Y-100936283D01*
G75*
G02*
X159856535Y-100932827I100708J-97252D01*
G01*
X160101111Y-101169010D01*
G75*
G02*
X160104567Y-101366970I-97252J-100708D01*
G01*
X159910063Y-101568385D01*
G75*
G02*
X159712103Y-101571841I-100708J97252D01*
G01*
G37*
G36*
G01*
X159045231Y-102262407D02*
X158800655Y-102026224D01*
G75*
G02*
X158797199Y-101828264I97252J100708D01*
G01*
X158991703Y-101626849D01*
G75*
G02*
X159189663Y-101623393I100708J-97252D01*
G01*
X159434239Y-101859576D01*
G75*
G02*
X159437695Y-102057536I-97252J-100708D01*
G01*
X159243191Y-102258951D01*
G75*
G02*
X159045231Y-102262407I-100708J97252D01*
G01*
G37*
G36*
G01*
X166697441Y-101208544D02*
X166461258Y-101453120D01*
G75*
G02*
X166263298Y-101456576I-100708J97252D01*
G01*
X166061883Y-101262072D01*
G75*
G02*
X166058427Y-101064112I97252J100708D01*
G01*
X166294610Y-100819536D01*
G75*
G02*
X166492570Y-100816080I100708J-97252D01*
G01*
X166693985Y-101010584D01*
G75*
G02*
X166697441Y-101208544I-97252J-100708D01*
G01*
G37*
G36*
G01*
X167388007Y-101875416D02*
X167151824Y-102119992D01*
G75*
G02*
X166953864Y-102123448I-100708J97252D01*
G01*
X166752449Y-101928944D01*
G75*
G02*
X166748993Y-101730984I97252J100708D01*
G01*
X166985176Y-101486408D01*
G75*
G02*
X167183136Y-101482952I100708J-97252D01*
G01*
X167384551Y-101677456D01*
G75*
G02*
X167388007Y-101875416I-97252J-100708D01*
G01*
G37*
D12*
X167779700Y-103238300D03*
X167741600Y-107188000D03*
X158546800Y-107175300D03*
G36*
G01*
X164921500Y-105136100D02*
X164921500Y-105506100D01*
G75*
G02*
X164786500Y-105641100I-135000J0D01*
G01*
X164516500Y-105641100D01*
G75*
G02*
X164381500Y-105506100I0J135000D01*
G01*
X164381500Y-105136100D01*
G75*
G02*
X164516500Y-105001100I135000J0D01*
G01*
X164786500Y-105001100D01*
G75*
G02*
X164921500Y-105136100I0J-135000D01*
G01*
G37*
G36*
G01*
X165941500Y-105136100D02*
X165941500Y-105506100D01*
G75*
G02*
X165806500Y-105641100I-135000J0D01*
G01*
X165536500Y-105641100D01*
G75*
G02*
X165401500Y-105506100I0J135000D01*
G01*
X165401500Y-105136100D01*
G75*
G02*
X165536500Y-105001100I135000J0D01*
G01*
X165806500Y-105001100D01*
G75*
G02*
X165941500Y-105136100I0J-135000D01*
G01*
G37*
G36*
G01*
X165828971Y-109355513D02*
X166069387Y-109595929D01*
G75*
G02*
X166069387Y-109793919I-98995J-98995D01*
G01*
X165871397Y-109991909D01*
G75*
G02*
X165673407Y-109991909I-98995J98995D01*
G01*
X165432991Y-109751493D01*
G75*
G02*
X165432991Y-109553503I98995J98995D01*
G01*
X165630981Y-109355513D01*
G75*
G02*
X165828971Y-109355513I98995J-98995D01*
G01*
G37*
G36*
G01*
X166507793Y-108676691D02*
X166748209Y-108917107D01*
G75*
G02*
X166748209Y-109115097I-98995J-98995D01*
G01*
X166550219Y-109313087D01*
G75*
G02*
X166352229Y-109313087I-98995J98995D01*
G01*
X166111813Y-109072671D01*
G75*
G02*
X166111813Y-108874681I98995J98995D01*
G01*
X166309803Y-108676691D01*
G75*
G02*
X166507793Y-108676691I98995J-98995D01*
G01*
G37*
G36*
G01*
X163420300Y-100184800D02*
X163420300Y-99814800D01*
G75*
G02*
X163555300Y-99679800I135000J0D01*
G01*
X163825300Y-99679800D01*
G75*
G02*
X163960300Y-99814800I0J-135000D01*
G01*
X163960300Y-100184800D01*
G75*
G02*
X163825300Y-100319800I-135000J0D01*
G01*
X163555300Y-100319800D01*
G75*
G02*
X163420300Y-100184800I0J135000D01*
G01*
G37*
G36*
G01*
X162400300Y-100184800D02*
X162400300Y-99814800D01*
G75*
G02*
X162535300Y-99679800I135000J0D01*
G01*
X162805300Y-99679800D01*
G75*
G02*
X162940300Y-99814800I0J-135000D01*
G01*
X162940300Y-100184800D01*
G75*
G02*
X162805300Y-100319800I-135000J0D01*
G01*
X162535300Y-100319800D01*
G75*
G02*
X162400300Y-100184800I0J135000D01*
G01*
G37*
G36*
G01*
X159329300Y-108531000D02*
X159669300Y-108531000D01*
G75*
G02*
X159809300Y-108671000I0J-140000D01*
G01*
X159809300Y-108951000D01*
G75*
G02*
X159669300Y-109091000I-140000J0D01*
G01*
X159329300Y-109091000D01*
G75*
G02*
X159189300Y-108951000I0J140000D01*
G01*
X159189300Y-108671000D01*
G75*
G02*
X159329300Y-108531000I140000J0D01*
G01*
G37*
G36*
G01*
X159329300Y-107571000D02*
X159669300Y-107571000D01*
G75*
G02*
X159809300Y-107711000I0J-140000D01*
G01*
X159809300Y-107991000D01*
G75*
G02*
X159669300Y-108131000I-140000J0D01*
G01*
X159329300Y-108131000D01*
G75*
G02*
X159189300Y-107991000I0J140000D01*
G01*
X159189300Y-107711000D01*
G75*
G02*
X159329300Y-107571000I140000J0D01*
G01*
G37*
M02*
