G04 #@! TF.GenerationSoftware,KiCad,Pcbnew,(5.1.7)-1*
G04 #@! TF.CreationDate,2021-10-31T20:58:24-07:00*
G04 #@! TF.ProjectId,tiny_trollerV2,74696e79-5f74-4726-9f6c-6c657256322e,rev?*
G04 #@! TF.SameCoordinates,Original*
G04 #@! TF.FileFunction,Copper,L2,Inr*
G04 #@! TF.FilePolarity,Positive*
%FSLAX46Y46*%
G04 Gerber Fmt 4.6, Leading zero omitted, Abs format (unit mm)*
G04 Created by KiCad (PCBNEW (5.1.7)-1) date 2021-10-31 20:58:24*
%MOMM*%
%LPD*%
G01*
G04 APERTURE LIST*
G04 #@! TA.AperFunction,ViaPad*
%ADD10C,0.600000*%
G04 #@! TD*
G04 #@! TA.AperFunction,Conductor*
%ADD11C,0.152400*%
G04 #@! TD*
G04 #@! TA.AperFunction,Conductor*
%ADD12C,0.254000*%
G04 #@! TD*
G04 #@! TA.AperFunction,Conductor*
%ADD13C,0.150000*%
G04 #@! TD*
G04 APERTURE END LIST*
D10*
X163779200Y-102323900D03*
X163779200Y-100838000D03*
X166966900Y-102654100D03*
X167817800Y-107111800D03*
X159499304Y-107851004D03*
X165747700Y-109689900D03*
X166377934Y-101136328D03*
X163011386Y-108168790D03*
X162491712Y-101511464D03*
X163732533Y-104327417D03*
X166107963Y-106685230D03*
X160337500Y-106895900D03*
X161099547Y-109918594D03*
X165770392Y-100685719D03*
X162660367Y-108840233D03*
X165889983Y-102506873D03*
X160359283Y-103065103D03*
X163993129Y-103546192D03*
X165641310Y-106095011D03*
X162448519Y-107223564D03*
X160901496Y-105891011D03*
X164250848Y-108335751D03*
X164460218Y-104136084D03*
X164188308Y-107272209D03*
X163201073Y-107234021D03*
X160220079Y-102318529D03*
X165555532Y-104767507D03*
X163398788Y-109208822D03*
X165920576Y-101755084D03*
X160485047Y-100728490D03*
X162072376Y-108269940D03*
X159651062Y-102810814D03*
X161845563Y-110261824D03*
X161489079Y-107784799D03*
X164666626Y-110205929D03*
X167233600Y-108267500D03*
X160268511Y-107714180D03*
X166014947Y-103687409D03*
X166375637Y-107403182D03*
X163684084Y-107830672D03*
X164859472Y-103406112D03*
X161294746Y-103638964D03*
X159499300Y-108800900D03*
X159778700Y-101257100D03*
X160289729Y-104379574D03*
D11*
X165729770Y-106685230D02*
X166107963Y-106685230D01*
X165379400Y-107035600D02*
X165729770Y-106685230D01*
X165379400Y-107985960D02*
X165379400Y-107035600D01*
X164399089Y-108966271D02*
X165379400Y-107985960D01*
X163926801Y-108966271D02*
X164399089Y-108966271D01*
X163927388Y-109475513D02*
X163652516Y-109750384D01*
X163652516Y-109750384D02*
X162683984Y-109750384D01*
X162683984Y-109750384D02*
X160802601Y-107869001D01*
X160802601Y-107869001D02*
X160802601Y-107462601D01*
X160802601Y-107462601D02*
X160210500Y-106870500D01*
X163926801Y-108966271D02*
X163927388Y-108966858D01*
X163927388Y-108966858D02*
X163927388Y-109475513D01*
X163129320Y-108168790D02*
X163011386Y-108168790D01*
X163926801Y-108966271D02*
X163129320Y-108168790D01*
X164749711Y-101366601D02*
X163525471Y-101366601D01*
X161976544Y-100634789D02*
X160822846Y-101788488D01*
X159092900Y-102603300D02*
X159092900Y-103035100D01*
X160059284Y-103365102D02*
X160359283Y-103065103D01*
X159907712Y-101788488D02*
X159092900Y-102603300D01*
X159092900Y-103035100D02*
X159422902Y-103365102D01*
X165889983Y-102506873D02*
X164749711Y-101366601D01*
X163525471Y-101366601D02*
X162793659Y-100634789D01*
X159422902Y-103365102D02*
X160059284Y-103365102D01*
X160822846Y-101788488D02*
X159907712Y-101788488D01*
X162793659Y-100634789D02*
X161976544Y-100634789D01*
X164250848Y-108335751D02*
X164403646Y-108335751D01*
X165021729Y-107717668D02*
X165021729Y-104697595D01*
X164403646Y-108335751D02*
X165021729Y-107717668D01*
X165021729Y-104697595D02*
X164460218Y-104136084D01*
X165486345Y-102862645D02*
X165486345Y-104698320D01*
X165486345Y-104698320D02*
X165555532Y-104767507D01*
X164295112Y-101671412D02*
X165486345Y-102862645D01*
X163399215Y-101671412D02*
X164295112Y-101671412D01*
X162619727Y-102450900D02*
X163399215Y-101671412D01*
X160352450Y-102450900D02*
X162619727Y-102450900D01*
X160220079Y-102318529D02*
X160352450Y-102450900D01*
X160274000Y-107758766D02*
X160274000Y-107719669D01*
X160274000Y-107796866D02*
X160274000Y-107719669D01*
X160274000Y-107719669D02*
X160268511Y-107714180D01*
X160268511Y-107766711D02*
X160268511Y-107714180D01*
X162556995Y-110055195D02*
X160268511Y-107766711D01*
X163778772Y-110055195D02*
X162556995Y-110055195D01*
X165490267Y-108343700D02*
X163778772Y-110055195D01*
X167157400Y-108343700D02*
X165490267Y-108343700D01*
X167233600Y-108267500D02*
X167157400Y-108343700D01*
X166093316Y-104792954D02*
X166096674Y-104800347D01*
X166096674Y-104800347D02*
X166072760Y-104876613D01*
X166121405Y-104718126D02*
X166093316Y-104792954D01*
X166072760Y-104876613D02*
X166076518Y-104883805D01*
X166076518Y-104883805D02*
X166056852Y-104961273D01*
X166056852Y-104961273D02*
X166061003Y-104968249D01*
X166040487Y-105728635D02*
X166199777Y-105887925D01*
X166199777Y-105887925D02*
X166199777Y-106014713D01*
X166199777Y-106014713D02*
X166675636Y-106490572D01*
X166061003Y-104968249D02*
X166050738Y-105020672D01*
X166040487Y-105030923D02*
X166040487Y-105728635D01*
X166675636Y-106490572D02*
X166675636Y-107103183D01*
X166050738Y-105020672D02*
X166040487Y-105030923D01*
X166675636Y-107103183D02*
X166375637Y-107403182D01*
X166118462Y-104710563D02*
X166121405Y-104718126D01*
X166150640Y-104637400D02*
X166118462Y-104710563D01*
X166148119Y-104629685D02*
X166150640Y-104637400D01*
X166275684Y-104378294D02*
X166148119Y-104629685D01*
X166275684Y-104372410D02*
X166275684Y-104378294D01*
X166014947Y-104111673D02*
X166275684Y-104372410D01*
X166014947Y-103687409D02*
X166014947Y-104111673D01*
X163776369Y-102865201D02*
X164318561Y-102865201D01*
X163684084Y-107830672D02*
X163709255Y-107805501D01*
X163195000Y-103446570D02*
X163776369Y-102865201D01*
X164318561Y-102865201D02*
X164859472Y-103406112D01*
X163195000Y-104660700D02*
X163195000Y-103446570D01*
X164716918Y-106182618D02*
X163195000Y-104660700D01*
X164502829Y-107805501D02*
X164716918Y-107591412D01*
X164716918Y-107591412D02*
X164716918Y-106182618D01*
X163709255Y-107805501D02*
X164502829Y-107805501D01*
D12*
X166864254Y-108717549D02*
X166959151Y-108780957D01*
X167064595Y-108824634D01*
X167176534Y-108846900D01*
X167200844Y-108846900D01*
X167151822Y-108909696D01*
X166470810Y-109529861D01*
X165695048Y-110026412D01*
X165246026Y-110216295D01*
X165246026Y-110148863D01*
X165223760Y-110036924D01*
X165180083Y-109931480D01*
X165116675Y-109836583D01*
X165035972Y-109755880D01*
X164941075Y-109692472D01*
X164835631Y-109648795D01*
X164723692Y-109626529D01*
X164710332Y-109626529D01*
X165637562Y-108699300D01*
X166846005Y-108699300D01*
X166864254Y-108717549D01*
G04 #@! TA.AperFunction,Conductor*
D13*
G36*
X166864254Y-108717549D02*
G01*
X166959151Y-108780957D01*
X167064595Y-108824634D01*
X167176534Y-108846900D01*
X167200844Y-108846900D01*
X167151822Y-108909696D01*
X166470810Y-109529861D01*
X165695048Y-110026412D01*
X165246026Y-110216295D01*
X165246026Y-110148863D01*
X165223760Y-110036924D01*
X165180083Y-109931480D01*
X165116675Y-109836583D01*
X165035972Y-109755880D01*
X164941075Y-109692472D01*
X164835631Y-109648795D01*
X164723692Y-109626529D01*
X164710332Y-109626529D01*
X165637562Y-108699300D01*
X166846005Y-108699300D01*
X166864254Y-108717549D01*
G37*
G04 #@! TD.AperFunction*
D12*
X159265243Y-101531549D02*
X159328651Y-101626446D01*
X159409354Y-101707149D01*
X159455394Y-101737912D01*
X158853801Y-102339506D01*
X158840237Y-102350638D01*
X158795799Y-102404785D01*
X158762779Y-102466561D01*
X158756417Y-102487534D01*
X158742770Y-102532524D01*
X158742446Y-102533591D01*
X158737300Y-102585838D01*
X158737300Y-102585845D01*
X158735581Y-102603300D01*
X158737300Y-102620755D01*
X158737300Y-103017645D01*
X158735581Y-103035100D01*
X158737300Y-103052555D01*
X158737300Y-103052563D01*
X158738821Y-103068001D01*
X158742446Y-103104810D01*
X158762780Y-103171841D01*
X158774575Y-103193907D01*
X158795800Y-103233616D01*
X158807650Y-103248055D01*
X158827091Y-103271743D01*
X158840238Y-103287763D01*
X158853800Y-103298894D01*
X159159112Y-103604207D01*
X159170239Y-103617765D01*
X159183797Y-103628892D01*
X159183802Y-103628897D01*
X159207192Y-103648092D01*
X159224386Y-103662203D01*
X159286162Y-103695223D01*
X159353192Y-103715556D01*
X159405439Y-103720702D01*
X159405448Y-103720702D01*
X159422901Y-103722421D01*
X159440354Y-103720702D01*
X160041829Y-103720702D01*
X160059284Y-103722421D01*
X160076739Y-103720702D01*
X160076747Y-103720702D01*
X160128994Y-103715556D01*
X160196024Y-103695223D01*
X160257800Y-103662203D01*
X160283825Y-103640845D01*
X160302217Y-103644503D01*
X160416349Y-103644503D01*
X160528288Y-103622237D01*
X160633732Y-103578560D01*
X160728622Y-103515157D01*
X160715346Y-103581898D01*
X160715346Y-103696030D01*
X160737612Y-103807969D01*
X160781289Y-103913413D01*
X160844697Y-104008310D01*
X160925400Y-104089013D01*
X161020297Y-104152421D01*
X161125741Y-104196098D01*
X161237680Y-104218364D01*
X161351812Y-104218364D01*
X161463751Y-104196098D01*
X161569195Y-104152421D01*
X161664092Y-104089013D01*
X161744795Y-104008310D01*
X161808203Y-103913413D01*
X161851880Y-103807969D01*
X161874146Y-103696030D01*
X161874146Y-103581898D01*
X161851880Y-103469959D01*
X161808203Y-103364515D01*
X161744795Y-103269618D01*
X161664092Y-103188915D01*
X161569195Y-103125507D01*
X161463751Y-103081830D01*
X161351812Y-103059564D01*
X161237680Y-103059564D01*
X161125741Y-103081830D01*
X161020297Y-103125507D01*
X160925407Y-103188910D01*
X160938683Y-103122169D01*
X160938683Y-103008037D01*
X160916417Y-102896098D01*
X160879304Y-102806500D01*
X162602272Y-102806500D01*
X162619727Y-102808219D01*
X162637182Y-102806500D01*
X162637190Y-102806500D01*
X162689437Y-102801354D01*
X162756467Y-102781021D01*
X162818243Y-102748001D01*
X162872390Y-102703563D01*
X162883526Y-102689994D01*
X163546509Y-102027012D01*
X164147819Y-102027012D01*
X164955211Y-102834404D01*
X164916538Y-102826712D01*
X164802406Y-102826712D01*
X164786191Y-102829937D01*
X164582360Y-102626107D01*
X164571224Y-102612538D01*
X164517077Y-102568100D01*
X164455301Y-102535080D01*
X164388271Y-102514747D01*
X164336024Y-102509601D01*
X164336016Y-102509601D01*
X164318561Y-102507882D01*
X164301106Y-102509601D01*
X163793824Y-102509601D01*
X163776369Y-102507882D01*
X163758913Y-102509601D01*
X163758906Y-102509601D01*
X163712935Y-102514129D01*
X163706658Y-102514747D01*
X163687331Y-102520610D01*
X163639629Y-102535080D01*
X163577853Y-102568100D01*
X163523706Y-102612538D01*
X163512575Y-102626101D01*
X162955901Y-103182776D01*
X162942338Y-103193907D01*
X162931207Y-103207470D01*
X162931205Y-103207472D01*
X162926587Y-103213099D01*
X162897900Y-103248054D01*
X162888562Y-103265524D01*
X162864880Y-103309829D01*
X162844546Y-103376860D01*
X162837681Y-103446570D01*
X162839401Y-103464035D01*
X162839400Y-104643244D01*
X162837681Y-104660700D01*
X162839400Y-104678155D01*
X162839400Y-104678162D01*
X162843160Y-104716341D01*
X162844546Y-104730410D01*
X162851678Y-104753922D01*
X162864879Y-104797439D01*
X162897899Y-104859215D01*
X162942337Y-104913362D01*
X162955901Y-104924494D01*
X164361319Y-106329914D01*
X164361319Y-106716734D01*
X164357313Y-106715075D01*
X164245374Y-106692809D01*
X164131242Y-106692809D01*
X164019303Y-106715075D01*
X163913859Y-106758752D01*
X163818962Y-106822160D01*
X163738259Y-106902863D01*
X163707449Y-106948974D01*
X163651122Y-106864675D01*
X163570419Y-106783972D01*
X163475522Y-106720564D01*
X163370078Y-106676887D01*
X163258139Y-106654621D01*
X163144007Y-106654621D01*
X163032068Y-106676887D01*
X162926624Y-106720564D01*
X162831727Y-106783972D01*
X162830025Y-106785675D01*
X162817865Y-106773515D01*
X162722968Y-106710107D01*
X162617524Y-106666430D01*
X162505585Y-106644164D01*
X162391453Y-106644164D01*
X162279514Y-106666430D01*
X162174070Y-106710107D01*
X162079173Y-106773515D01*
X161998470Y-106854218D01*
X161935062Y-106949115D01*
X161891385Y-107054559D01*
X161869119Y-107166498D01*
X161869119Y-107280630D01*
X161885212Y-107361537D01*
X161858425Y-107334750D01*
X161763528Y-107271342D01*
X161658084Y-107227665D01*
X161546145Y-107205399D01*
X161432013Y-107205399D01*
X161320074Y-107227665D01*
X161214630Y-107271342D01*
X161132775Y-107326036D01*
X161132722Y-107325861D01*
X161099702Y-107264085D01*
X161093880Y-107256991D01*
X161066396Y-107223501D01*
X161066391Y-107223496D01*
X161055264Y-107209938D01*
X161041706Y-107198811D01*
X160896818Y-107053924D01*
X160916900Y-106952966D01*
X160916900Y-106838834D01*
X160894634Y-106726895D01*
X160850957Y-106621451D01*
X160787549Y-106526554D01*
X160706846Y-106445851D01*
X160674050Y-106423938D01*
X160732491Y-106448145D01*
X160844430Y-106470411D01*
X160958562Y-106470411D01*
X161070501Y-106448145D01*
X161175945Y-106404468D01*
X161270842Y-106341060D01*
X161351545Y-106260357D01*
X161414953Y-106165460D01*
X161458630Y-106060016D01*
X161480896Y-105948077D01*
X161480896Y-105833945D01*
X161458630Y-105722006D01*
X161414953Y-105616562D01*
X161351545Y-105521665D01*
X161270842Y-105440962D01*
X161175945Y-105377554D01*
X161070501Y-105333877D01*
X160958562Y-105311611D01*
X160844430Y-105311611D01*
X160732491Y-105333877D01*
X160627047Y-105377554D01*
X160532150Y-105440962D01*
X160451447Y-105521665D01*
X160388039Y-105616562D01*
X160344362Y-105722006D01*
X160322096Y-105833945D01*
X160322096Y-105948077D01*
X160344362Y-106060016D01*
X160388039Y-106165460D01*
X160451447Y-106260357D01*
X160532150Y-106341060D01*
X160564946Y-106362973D01*
X160506505Y-106338766D01*
X160394566Y-106316500D01*
X160280434Y-106316500D01*
X160168495Y-106338766D01*
X160063051Y-106382443D01*
X159968154Y-106445851D01*
X159887451Y-106526554D01*
X159824043Y-106621451D01*
X159780366Y-106726895D01*
X159758100Y-106838834D01*
X159758100Y-106952966D01*
X159780366Y-107064905D01*
X159824043Y-107170349D01*
X159887451Y-107265246D01*
X159892751Y-107270546D01*
X159818462Y-107344834D01*
X159755054Y-107439731D01*
X159711377Y-107545175D01*
X159689111Y-107657114D01*
X159689111Y-107771246D01*
X159711377Y-107883185D01*
X159755054Y-107988629D01*
X159818462Y-108083526D01*
X159899165Y-108164229D01*
X159994062Y-108227637D01*
X160099506Y-108271314D01*
X160211445Y-108293580D01*
X160292487Y-108293580D01*
X161464547Y-109465641D01*
X161373996Y-109405137D01*
X161268552Y-109361460D01*
X161156613Y-109339194D01*
X161042481Y-109339194D01*
X160930542Y-109361460D01*
X160825098Y-109405137D01*
X160730201Y-109468545D01*
X160649498Y-109549248D01*
X160586090Y-109644145D01*
X160542413Y-109749589D01*
X160520147Y-109861528D01*
X160520147Y-109962024D01*
X160398235Y-109903673D01*
X159646303Y-109371720D01*
X159638533Y-109363956D01*
X159668305Y-109358034D01*
X159773749Y-109314357D01*
X159868646Y-109250949D01*
X159949349Y-109170246D01*
X160012757Y-109075349D01*
X160056434Y-108969905D01*
X160078700Y-108857966D01*
X160078700Y-108743834D01*
X160056434Y-108631895D01*
X160012757Y-108526451D01*
X159949349Y-108431554D01*
X159868646Y-108350851D01*
X159773749Y-108287443D01*
X159668305Y-108243766D01*
X159556366Y-108221500D01*
X159442234Y-108221500D01*
X159330295Y-108243766D01*
X159224851Y-108287443D01*
X159129954Y-108350851D01*
X159049251Y-108431554D01*
X158985843Y-108526451D01*
X158942166Y-108631895D01*
X158939901Y-108643280D01*
X158462201Y-107969164D01*
X158062620Y-107136016D01*
X157866884Y-106505643D01*
X157868648Y-106506468D01*
X157871793Y-106508526D01*
X157881641Y-106513674D01*
X157890881Y-106519849D01*
X157893994Y-106521487D01*
X158119345Y-106638059D01*
X158140587Y-106646535D01*
X158161652Y-106655283D01*
X158165024Y-106656286D01*
X158408724Y-106726867D01*
X158431225Y-106731059D01*
X158453571Y-106735545D01*
X158457063Y-106735872D01*
X158457074Y-106735874D01*
X158457084Y-106735874D01*
X158709843Y-106757775D01*
X158732727Y-106757517D01*
X158755522Y-106757577D01*
X158759010Y-106757220D01*
X158759022Y-106757220D01*
X158759033Y-106757218D01*
X159011229Y-106729608D01*
X159033581Y-106724919D01*
X159056000Y-106720542D01*
X159059364Y-106719511D01*
X159301405Y-106643438D01*
X159322453Y-106634483D01*
X159343562Y-106625848D01*
X159346657Y-106624185D01*
X159346662Y-106624183D01*
X159346666Y-106624180D01*
X159569319Y-106502546D01*
X159588227Y-106489673D01*
X159607256Y-106477103D01*
X159609973Y-106474868D01*
X159804763Y-106312300D01*
X159820791Y-106296019D01*
X159837036Y-106279973D01*
X159839262Y-106277258D01*
X159839267Y-106277253D01*
X159839271Y-106277248D01*
X159998771Y-106079945D01*
X160011353Y-106060829D01*
X160024150Y-106041965D01*
X160025808Y-106038868D01*
X160025811Y-106038864D01*
X160025813Y-106038860D01*
X160143953Y-105814332D01*
X160152584Y-105793132D01*
X160161471Y-105772147D01*
X160162494Y-105768791D01*
X160162498Y-105768781D01*
X160162500Y-105768771D01*
X160234778Y-105525580D01*
X160239129Y-105503098D01*
X160243769Y-105480794D01*
X160244121Y-105477307D01*
X160244123Y-105477295D01*
X160244123Y-105477284D01*
X160267788Y-105224685D01*
X160267689Y-105201797D01*
X160267909Y-105179006D01*
X160267576Y-105175503D01*
X160245399Y-104958974D01*
X160346795Y-104958974D01*
X160458734Y-104936708D01*
X160564178Y-104893031D01*
X160659075Y-104829623D01*
X160739778Y-104748920D01*
X160803186Y-104654023D01*
X160846863Y-104548579D01*
X160869129Y-104436640D01*
X160869129Y-104322508D01*
X160846863Y-104210569D01*
X160803186Y-104105125D01*
X160739778Y-104010228D01*
X160659075Y-103929525D01*
X160564178Y-103866117D01*
X160458734Y-103822440D01*
X160346795Y-103800174D01*
X160232663Y-103800174D01*
X160120724Y-103822440D01*
X160015280Y-103866117D01*
X159920383Y-103929525D01*
X159839680Y-104010228D01*
X159788653Y-104086596D01*
X159598973Y-103931056D01*
X159579946Y-103918341D01*
X159561170Y-103905412D01*
X159558085Y-103903733D01*
X159558081Y-103903730D01*
X159558077Y-103903728D01*
X159334381Y-103784023D01*
X159313263Y-103775253D01*
X159292317Y-103766210D01*
X159288963Y-103765162D01*
X159288957Y-103765160D01*
X159046269Y-103691184D01*
X159023893Y-103686692D01*
X159001547Y-103681880D01*
X158998050Y-103681503D01*
X158745611Y-103656074D01*
X158722753Y-103656013D01*
X158699934Y-103655634D01*
X158696430Y-103655943D01*
X158443861Y-103680030D01*
X158421367Y-103684421D01*
X158398969Y-103688471D01*
X158395603Y-103689451D01*
X158395590Y-103689454D01*
X158395578Y-103689459D01*
X158152510Y-103762141D01*
X158131369Y-103770789D01*
X158110111Y-103779140D01*
X158106998Y-103780757D01*
X158106989Y-103780761D01*
X158106981Y-103780766D01*
X157882769Y-103899219D01*
X157882653Y-103899279D01*
X157867766Y-103907144D01*
X158158839Y-103041107D01*
X158595191Y-102229949D01*
X159161975Y-101503908D01*
X159228645Y-101443195D01*
X159265243Y-101531549D01*
G04 #@! TA.AperFunction,Conductor*
D13*
G36*
X159265243Y-101531549D02*
G01*
X159328651Y-101626446D01*
X159409354Y-101707149D01*
X159455394Y-101737912D01*
X158853801Y-102339506D01*
X158840237Y-102350638D01*
X158795799Y-102404785D01*
X158762779Y-102466561D01*
X158756417Y-102487534D01*
X158742770Y-102532524D01*
X158742446Y-102533591D01*
X158737300Y-102585838D01*
X158737300Y-102585845D01*
X158735581Y-102603300D01*
X158737300Y-102620755D01*
X158737300Y-103017645D01*
X158735581Y-103035100D01*
X158737300Y-103052555D01*
X158737300Y-103052563D01*
X158738821Y-103068001D01*
X158742446Y-103104810D01*
X158762780Y-103171841D01*
X158774575Y-103193907D01*
X158795800Y-103233616D01*
X158807650Y-103248055D01*
X158827091Y-103271743D01*
X158840238Y-103287763D01*
X158853800Y-103298894D01*
X159159112Y-103604207D01*
X159170239Y-103617765D01*
X159183797Y-103628892D01*
X159183802Y-103628897D01*
X159207192Y-103648092D01*
X159224386Y-103662203D01*
X159286162Y-103695223D01*
X159353192Y-103715556D01*
X159405439Y-103720702D01*
X159405448Y-103720702D01*
X159422901Y-103722421D01*
X159440354Y-103720702D01*
X160041829Y-103720702D01*
X160059284Y-103722421D01*
X160076739Y-103720702D01*
X160076747Y-103720702D01*
X160128994Y-103715556D01*
X160196024Y-103695223D01*
X160257800Y-103662203D01*
X160283825Y-103640845D01*
X160302217Y-103644503D01*
X160416349Y-103644503D01*
X160528288Y-103622237D01*
X160633732Y-103578560D01*
X160728622Y-103515157D01*
X160715346Y-103581898D01*
X160715346Y-103696030D01*
X160737612Y-103807969D01*
X160781289Y-103913413D01*
X160844697Y-104008310D01*
X160925400Y-104089013D01*
X161020297Y-104152421D01*
X161125741Y-104196098D01*
X161237680Y-104218364D01*
X161351812Y-104218364D01*
X161463751Y-104196098D01*
X161569195Y-104152421D01*
X161664092Y-104089013D01*
X161744795Y-104008310D01*
X161808203Y-103913413D01*
X161851880Y-103807969D01*
X161874146Y-103696030D01*
X161874146Y-103581898D01*
X161851880Y-103469959D01*
X161808203Y-103364515D01*
X161744795Y-103269618D01*
X161664092Y-103188915D01*
X161569195Y-103125507D01*
X161463751Y-103081830D01*
X161351812Y-103059564D01*
X161237680Y-103059564D01*
X161125741Y-103081830D01*
X161020297Y-103125507D01*
X160925407Y-103188910D01*
X160938683Y-103122169D01*
X160938683Y-103008037D01*
X160916417Y-102896098D01*
X160879304Y-102806500D01*
X162602272Y-102806500D01*
X162619727Y-102808219D01*
X162637182Y-102806500D01*
X162637190Y-102806500D01*
X162689437Y-102801354D01*
X162756467Y-102781021D01*
X162818243Y-102748001D01*
X162872390Y-102703563D01*
X162883526Y-102689994D01*
X163546509Y-102027012D01*
X164147819Y-102027012D01*
X164955211Y-102834404D01*
X164916538Y-102826712D01*
X164802406Y-102826712D01*
X164786191Y-102829937D01*
X164582360Y-102626107D01*
X164571224Y-102612538D01*
X164517077Y-102568100D01*
X164455301Y-102535080D01*
X164388271Y-102514747D01*
X164336024Y-102509601D01*
X164336016Y-102509601D01*
X164318561Y-102507882D01*
X164301106Y-102509601D01*
X163793824Y-102509601D01*
X163776369Y-102507882D01*
X163758913Y-102509601D01*
X163758906Y-102509601D01*
X163712935Y-102514129D01*
X163706658Y-102514747D01*
X163687331Y-102520610D01*
X163639629Y-102535080D01*
X163577853Y-102568100D01*
X163523706Y-102612538D01*
X163512575Y-102626101D01*
X162955901Y-103182776D01*
X162942338Y-103193907D01*
X162931207Y-103207470D01*
X162931205Y-103207472D01*
X162926587Y-103213099D01*
X162897900Y-103248054D01*
X162888562Y-103265524D01*
X162864880Y-103309829D01*
X162844546Y-103376860D01*
X162837681Y-103446570D01*
X162839401Y-103464035D01*
X162839400Y-104643244D01*
X162837681Y-104660700D01*
X162839400Y-104678155D01*
X162839400Y-104678162D01*
X162843160Y-104716341D01*
X162844546Y-104730410D01*
X162851678Y-104753922D01*
X162864879Y-104797439D01*
X162897899Y-104859215D01*
X162942337Y-104913362D01*
X162955901Y-104924494D01*
X164361319Y-106329914D01*
X164361319Y-106716734D01*
X164357313Y-106715075D01*
X164245374Y-106692809D01*
X164131242Y-106692809D01*
X164019303Y-106715075D01*
X163913859Y-106758752D01*
X163818962Y-106822160D01*
X163738259Y-106902863D01*
X163707449Y-106948974D01*
X163651122Y-106864675D01*
X163570419Y-106783972D01*
X163475522Y-106720564D01*
X163370078Y-106676887D01*
X163258139Y-106654621D01*
X163144007Y-106654621D01*
X163032068Y-106676887D01*
X162926624Y-106720564D01*
X162831727Y-106783972D01*
X162830025Y-106785675D01*
X162817865Y-106773515D01*
X162722968Y-106710107D01*
X162617524Y-106666430D01*
X162505585Y-106644164D01*
X162391453Y-106644164D01*
X162279514Y-106666430D01*
X162174070Y-106710107D01*
X162079173Y-106773515D01*
X161998470Y-106854218D01*
X161935062Y-106949115D01*
X161891385Y-107054559D01*
X161869119Y-107166498D01*
X161869119Y-107280630D01*
X161885212Y-107361537D01*
X161858425Y-107334750D01*
X161763528Y-107271342D01*
X161658084Y-107227665D01*
X161546145Y-107205399D01*
X161432013Y-107205399D01*
X161320074Y-107227665D01*
X161214630Y-107271342D01*
X161132775Y-107326036D01*
X161132722Y-107325861D01*
X161099702Y-107264085D01*
X161093880Y-107256991D01*
X161066396Y-107223501D01*
X161066391Y-107223496D01*
X161055264Y-107209938D01*
X161041706Y-107198811D01*
X160896818Y-107053924D01*
X160916900Y-106952966D01*
X160916900Y-106838834D01*
X160894634Y-106726895D01*
X160850957Y-106621451D01*
X160787549Y-106526554D01*
X160706846Y-106445851D01*
X160674050Y-106423938D01*
X160732491Y-106448145D01*
X160844430Y-106470411D01*
X160958562Y-106470411D01*
X161070501Y-106448145D01*
X161175945Y-106404468D01*
X161270842Y-106341060D01*
X161351545Y-106260357D01*
X161414953Y-106165460D01*
X161458630Y-106060016D01*
X161480896Y-105948077D01*
X161480896Y-105833945D01*
X161458630Y-105722006D01*
X161414953Y-105616562D01*
X161351545Y-105521665D01*
X161270842Y-105440962D01*
X161175945Y-105377554D01*
X161070501Y-105333877D01*
X160958562Y-105311611D01*
X160844430Y-105311611D01*
X160732491Y-105333877D01*
X160627047Y-105377554D01*
X160532150Y-105440962D01*
X160451447Y-105521665D01*
X160388039Y-105616562D01*
X160344362Y-105722006D01*
X160322096Y-105833945D01*
X160322096Y-105948077D01*
X160344362Y-106060016D01*
X160388039Y-106165460D01*
X160451447Y-106260357D01*
X160532150Y-106341060D01*
X160564946Y-106362973D01*
X160506505Y-106338766D01*
X160394566Y-106316500D01*
X160280434Y-106316500D01*
X160168495Y-106338766D01*
X160063051Y-106382443D01*
X159968154Y-106445851D01*
X159887451Y-106526554D01*
X159824043Y-106621451D01*
X159780366Y-106726895D01*
X159758100Y-106838834D01*
X159758100Y-106952966D01*
X159780366Y-107064905D01*
X159824043Y-107170349D01*
X159887451Y-107265246D01*
X159892751Y-107270546D01*
X159818462Y-107344834D01*
X159755054Y-107439731D01*
X159711377Y-107545175D01*
X159689111Y-107657114D01*
X159689111Y-107771246D01*
X159711377Y-107883185D01*
X159755054Y-107988629D01*
X159818462Y-108083526D01*
X159899165Y-108164229D01*
X159994062Y-108227637D01*
X160099506Y-108271314D01*
X160211445Y-108293580D01*
X160292487Y-108293580D01*
X161464547Y-109465641D01*
X161373996Y-109405137D01*
X161268552Y-109361460D01*
X161156613Y-109339194D01*
X161042481Y-109339194D01*
X160930542Y-109361460D01*
X160825098Y-109405137D01*
X160730201Y-109468545D01*
X160649498Y-109549248D01*
X160586090Y-109644145D01*
X160542413Y-109749589D01*
X160520147Y-109861528D01*
X160520147Y-109962024D01*
X160398235Y-109903673D01*
X159646303Y-109371720D01*
X159638533Y-109363956D01*
X159668305Y-109358034D01*
X159773749Y-109314357D01*
X159868646Y-109250949D01*
X159949349Y-109170246D01*
X160012757Y-109075349D01*
X160056434Y-108969905D01*
X160078700Y-108857966D01*
X160078700Y-108743834D01*
X160056434Y-108631895D01*
X160012757Y-108526451D01*
X159949349Y-108431554D01*
X159868646Y-108350851D01*
X159773749Y-108287443D01*
X159668305Y-108243766D01*
X159556366Y-108221500D01*
X159442234Y-108221500D01*
X159330295Y-108243766D01*
X159224851Y-108287443D01*
X159129954Y-108350851D01*
X159049251Y-108431554D01*
X158985843Y-108526451D01*
X158942166Y-108631895D01*
X158939901Y-108643280D01*
X158462201Y-107969164D01*
X158062620Y-107136016D01*
X157866884Y-106505643D01*
X157868648Y-106506468D01*
X157871793Y-106508526D01*
X157881641Y-106513674D01*
X157890881Y-106519849D01*
X157893994Y-106521487D01*
X158119345Y-106638059D01*
X158140587Y-106646535D01*
X158161652Y-106655283D01*
X158165024Y-106656286D01*
X158408724Y-106726867D01*
X158431225Y-106731059D01*
X158453571Y-106735545D01*
X158457063Y-106735872D01*
X158457074Y-106735874D01*
X158457084Y-106735874D01*
X158709843Y-106757775D01*
X158732727Y-106757517D01*
X158755522Y-106757577D01*
X158759010Y-106757220D01*
X158759022Y-106757220D01*
X158759033Y-106757218D01*
X159011229Y-106729608D01*
X159033581Y-106724919D01*
X159056000Y-106720542D01*
X159059364Y-106719511D01*
X159301405Y-106643438D01*
X159322453Y-106634483D01*
X159343562Y-106625848D01*
X159346657Y-106624185D01*
X159346662Y-106624183D01*
X159346666Y-106624180D01*
X159569319Y-106502546D01*
X159588227Y-106489673D01*
X159607256Y-106477103D01*
X159609973Y-106474868D01*
X159804763Y-106312300D01*
X159820791Y-106296019D01*
X159837036Y-106279973D01*
X159839262Y-106277258D01*
X159839267Y-106277253D01*
X159839271Y-106277248D01*
X159998771Y-106079945D01*
X160011353Y-106060829D01*
X160024150Y-106041965D01*
X160025808Y-106038868D01*
X160025811Y-106038864D01*
X160025813Y-106038860D01*
X160143953Y-105814332D01*
X160152584Y-105793132D01*
X160161471Y-105772147D01*
X160162494Y-105768791D01*
X160162498Y-105768781D01*
X160162500Y-105768771D01*
X160234778Y-105525580D01*
X160239129Y-105503098D01*
X160243769Y-105480794D01*
X160244121Y-105477307D01*
X160244123Y-105477295D01*
X160244123Y-105477284D01*
X160267788Y-105224685D01*
X160267689Y-105201797D01*
X160267909Y-105179006D01*
X160267576Y-105175503D01*
X160245399Y-104958974D01*
X160346795Y-104958974D01*
X160458734Y-104936708D01*
X160564178Y-104893031D01*
X160659075Y-104829623D01*
X160739778Y-104748920D01*
X160803186Y-104654023D01*
X160846863Y-104548579D01*
X160869129Y-104436640D01*
X160869129Y-104322508D01*
X160846863Y-104210569D01*
X160803186Y-104105125D01*
X160739778Y-104010228D01*
X160659075Y-103929525D01*
X160564178Y-103866117D01*
X160458734Y-103822440D01*
X160346795Y-103800174D01*
X160232663Y-103800174D01*
X160120724Y-103822440D01*
X160015280Y-103866117D01*
X159920383Y-103929525D01*
X159839680Y-104010228D01*
X159788653Y-104086596D01*
X159598973Y-103931056D01*
X159579946Y-103918341D01*
X159561170Y-103905412D01*
X159558085Y-103903733D01*
X159558081Y-103903730D01*
X159558077Y-103903728D01*
X159334381Y-103784023D01*
X159313263Y-103775253D01*
X159292317Y-103766210D01*
X159288963Y-103765162D01*
X159288957Y-103765160D01*
X159046269Y-103691184D01*
X159023893Y-103686692D01*
X159001547Y-103681880D01*
X158998050Y-103681503D01*
X158745611Y-103656074D01*
X158722753Y-103656013D01*
X158699934Y-103655634D01*
X158696430Y-103655943D01*
X158443861Y-103680030D01*
X158421367Y-103684421D01*
X158398969Y-103688471D01*
X158395603Y-103689451D01*
X158395590Y-103689454D01*
X158395578Y-103689459D01*
X158152510Y-103762141D01*
X158131369Y-103770789D01*
X158110111Y-103779140D01*
X158106998Y-103780757D01*
X158106989Y-103780761D01*
X158106981Y-103780766D01*
X157882769Y-103899219D01*
X157882653Y-103899279D01*
X157867766Y-103907144D01*
X158158839Y-103041107D01*
X158595191Y-102229949D01*
X159161975Y-101503908D01*
X159228645Y-101443195D01*
X159265243Y-101531549D01*
G37*
G04 #@! TD.AperFunction*
D12*
X168154961Y-107372496D02*
X167779287Y-108070859D01*
X167747057Y-107993051D01*
X167683649Y-107898154D01*
X167602946Y-107817451D01*
X167508049Y-107754043D01*
X167402605Y-107710366D01*
X167290666Y-107688100D01*
X167176534Y-107688100D01*
X167064595Y-107710366D01*
X166959151Y-107754043D01*
X166864254Y-107817451D01*
X166783551Y-107898154D01*
X166723451Y-107988100D01*
X165736508Y-107988100D01*
X165736719Y-107985961D01*
X165735000Y-107968505D01*
X165735000Y-107182893D01*
X165764992Y-107152902D01*
X165833271Y-107198525D01*
X165818503Y-107234177D01*
X165796237Y-107346116D01*
X165796237Y-107460248D01*
X165818503Y-107572187D01*
X165862180Y-107677631D01*
X165925588Y-107772528D01*
X166006291Y-107853231D01*
X166101188Y-107916639D01*
X166206632Y-107960316D01*
X166318571Y-107982582D01*
X166432703Y-107982582D01*
X166544642Y-107960316D01*
X166650086Y-107916639D01*
X166744983Y-107853231D01*
X166825686Y-107772528D01*
X166889094Y-107677631D01*
X166932771Y-107572187D01*
X166955037Y-107460248D01*
X166955037Y-107346116D01*
X166951379Y-107327724D01*
X166952908Y-107325861D01*
X166972737Y-107301699D01*
X166973659Y-107299974D01*
X167005757Y-107239923D01*
X167026090Y-107172893D01*
X167031236Y-107120646D01*
X167031236Y-107120638D01*
X167032955Y-107103183D01*
X167031236Y-107085728D01*
X167031236Y-106650389D01*
X167267532Y-106722416D01*
X167289907Y-106726908D01*
X167312253Y-106731720D01*
X167315751Y-106732097D01*
X167568189Y-106757526D01*
X167591047Y-106757587D01*
X167613866Y-106757966D01*
X167617370Y-106757657D01*
X167617372Y-106757657D01*
X167869940Y-106733570D01*
X167892421Y-106729181D01*
X167914833Y-106725129D01*
X167918200Y-106724148D01*
X167918210Y-106724146D01*
X167918219Y-106724142D01*
X168161292Y-106651459D01*
X168182496Y-106642785D01*
X168203690Y-106634459D01*
X168206808Y-106632841D01*
X168206816Y-106632837D01*
X168431146Y-106514321D01*
X168431150Y-106514319D01*
X168446037Y-106506453D01*
X168154961Y-107372496D01*
G04 #@! TA.AperFunction,Conductor*
D13*
G36*
X168154961Y-107372496D02*
G01*
X167779287Y-108070859D01*
X167747057Y-107993051D01*
X167683649Y-107898154D01*
X167602946Y-107817451D01*
X167508049Y-107754043D01*
X167402605Y-107710366D01*
X167290666Y-107688100D01*
X167176534Y-107688100D01*
X167064595Y-107710366D01*
X166959151Y-107754043D01*
X166864254Y-107817451D01*
X166783551Y-107898154D01*
X166723451Y-107988100D01*
X165736508Y-107988100D01*
X165736719Y-107985961D01*
X165735000Y-107968505D01*
X165735000Y-107182893D01*
X165764992Y-107152902D01*
X165833271Y-107198525D01*
X165818503Y-107234177D01*
X165796237Y-107346116D01*
X165796237Y-107460248D01*
X165818503Y-107572187D01*
X165862180Y-107677631D01*
X165925588Y-107772528D01*
X166006291Y-107853231D01*
X166101188Y-107916639D01*
X166206632Y-107960316D01*
X166318571Y-107982582D01*
X166432703Y-107982582D01*
X166544642Y-107960316D01*
X166650086Y-107916639D01*
X166744983Y-107853231D01*
X166825686Y-107772528D01*
X166889094Y-107677631D01*
X166932771Y-107572187D01*
X166955037Y-107460248D01*
X166955037Y-107346116D01*
X166951379Y-107327724D01*
X166952908Y-107325861D01*
X166972737Y-107301699D01*
X166973659Y-107299974D01*
X167005757Y-107239923D01*
X167026090Y-107172893D01*
X167031236Y-107120646D01*
X167031236Y-107120638D01*
X167032955Y-107103183D01*
X167031236Y-107085728D01*
X167031236Y-106650389D01*
X167267532Y-106722416D01*
X167289907Y-106726908D01*
X167312253Y-106731720D01*
X167315751Y-106732097D01*
X167568189Y-106757526D01*
X167591047Y-106757587D01*
X167613866Y-106757966D01*
X167617370Y-106757657D01*
X167617372Y-106757657D01*
X167869940Y-106733570D01*
X167892421Y-106729181D01*
X167914833Y-106725129D01*
X167918200Y-106724148D01*
X167918210Y-106724146D01*
X167918219Y-106724142D01*
X168161292Y-106651459D01*
X168182496Y-106642785D01*
X168203690Y-106634459D01*
X168206808Y-106632841D01*
X168206816Y-106632837D01*
X168431146Y-106514321D01*
X168431150Y-106514319D01*
X168446037Y-106506453D01*
X168154961Y-107372496D01*
G37*
G04 #@! TD.AperFunction*
D12*
X163623783Y-103996241D02*
X163718680Y-104059649D01*
X163824124Y-104103326D01*
X163880818Y-104114603D01*
X163880818Y-104193150D01*
X163903084Y-104305089D01*
X163946761Y-104410533D01*
X164010169Y-104505430D01*
X164090872Y-104586133D01*
X164185769Y-104649541D01*
X164291213Y-104693218D01*
X164403152Y-104715484D01*
X164517284Y-104715484D01*
X164533499Y-104712259D01*
X164666130Y-104844891D01*
X164666130Y-105628935D01*
X163550600Y-104513407D01*
X163550600Y-103923058D01*
X163623783Y-103996241D01*
G04 #@! TA.AperFunction,Conductor*
D13*
G36*
X163623783Y-103996241D02*
G01*
X163718680Y-104059649D01*
X163824124Y-104103326D01*
X163880818Y-104114603D01*
X163880818Y-104193150D01*
X163903084Y-104305089D01*
X163946761Y-104410533D01*
X164010169Y-104505430D01*
X164090872Y-104586133D01*
X164185769Y-104649541D01*
X164291213Y-104693218D01*
X164403152Y-104715484D01*
X164517284Y-104715484D01*
X164533499Y-104712259D01*
X164666130Y-104844891D01*
X164666130Y-105628935D01*
X163550600Y-104513407D01*
X163550600Y-103923058D01*
X163623783Y-103996241D01*
G37*
G04 #@! TD.AperFunction*
D12*
X167319053Y-101692924D02*
X167851597Y-102444435D01*
X168251178Y-103277583D01*
X168446914Y-103907956D01*
X168445153Y-103907132D01*
X168442006Y-103905073D01*
X168432153Y-103899922D01*
X168422918Y-103893751D01*
X168419805Y-103892112D01*
X168194455Y-103775540D01*
X168173227Y-103767070D01*
X168152147Y-103758316D01*
X168148775Y-103757313D01*
X167905075Y-103686732D01*
X167882566Y-103682539D01*
X167860227Y-103678054D01*
X167856736Y-103677727D01*
X167856725Y-103677725D01*
X167856715Y-103677725D01*
X167603956Y-103655824D01*
X167581072Y-103656082D01*
X167558276Y-103656022D01*
X167554788Y-103656379D01*
X167554777Y-103656379D01*
X167554767Y-103656381D01*
X167302569Y-103683992D01*
X167280210Y-103688682D01*
X167257799Y-103693058D01*
X167254435Y-103694089D01*
X167012393Y-103770162D01*
X166991332Y-103779123D01*
X166970237Y-103787752D01*
X166967142Y-103789415D01*
X166967137Y-103789417D01*
X166967133Y-103789420D01*
X166744481Y-103911054D01*
X166725590Y-103923915D01*
X166706543Y-103936497D01*
X166703826Y-103938732D01*
X166509036Y-104101300D01*
X166508258Y-104102090D01*
X166463959Y-104057792D01*
X166464996Y-104056755D01*
X166528404Y-103961858D01*
X166572081Y-103856414D01*
X166594347Y-103744475D01*
X166594347Y-103630343D01*
X166572081Y-103518404D01*
X166528404Y-103412960D01*
X166464996Y-103318063D01*
X166384293Y-103237360D01*
X166289396Y-103173952D01*
X166183952Y-103130275D01*
X166072013Y-103108009D01*
X165957881Y-103108009D01*
X165845942Y-103130275D01*
X165841945Y-103131931D01*
X165841945Y-103086273D01*
X165947049Y-103086273D01*
X166058988Y-103064007D01*
X166164432Y-103020330D01*
X166259329Y-102956922D01*
X166340032Y-102876219D01*
X166403440Y-102781322D01*
X166447117Y-102675878D01*
X166469383Y-102563939D01*
X166469383Y-102449807D01*
X166447117Y-102337868D01*
X166403440Y-102232424D01*
X166347040Y-102148015D01*
X166370625Y-102124430D01*
X166434033Y-102029533D01*
X166477710Y-101924089D01*
X166499976Y-101812150D01*
X166499976Y-101702803D01*
X166546939Y-101693462D01*
X166652383Y-101649785D01*
X166747280Y-101586377D01*
X166827983Y-101505674D01*
X166891391Y-101410777D01*
X166933923Y-101308098D01*
X167319053Y-101692924D01*
G04 #@! TA.AperFunction,Conductor*
D13*
G36*
X167319053Y-101692924D02*
G01*
X167851597Y-102444435D01*
X168251178Y-103277583D01*
X168446914Y-103907956D01*
X168445153Y-103907132D01*
X168442006Y-103905073D01*
X168432153Y-103899922D01*
X168422918Y-103893751D01*
X168419805Y-103892112D01*
X168194455Y-103775540D01*
X168173227Y-103767070D01*
X168152147Y-103758316D01*
X168148775Y-103757313D01*
X167905075Y-103686732D01*
X167882566Y-103682539D01*
X167860227Y-103678054D01*
X167856736Y-103677727D01*
X167856725Y-103677725D01*
X167856715Y-103677725D01*
X167603956Y-103655824D01*
X167581072Y-103656082D01*
X167558276Y-103656022D01*
X167554788Y-103656379D01*
X167554777Y-103656379D01*
X167554767Y-103656381D01*
X167302569Y-103683992D01*
X167280210Y-103688682D01*
X167257799Y-103693058D01*
X167254435Y-103694089D01*
X167012393Y-103770162D01*
X166991332Y-103779123D01*
X166970237Y-103787752D01*
X166967142Y-103789415D01*
X166967137Y-103789417D01*
X166967133Y-103789420D01*
X166744481Y-103911054D01*
X166725590Y-103923915D01*
X166706543Y-103936497D01*
X166703826Y-103938732D01*
X166509036Y-104101300D01*
X166508258Y-104102090D01*
X166463959Y-104057792D01*
X166464996Y-104056755D01*
X166528404Y-103961858D01*
X166572081Y-103856414D01*
X166594347Y-103744475D01*
X166594347Y-103630343D01*
X166572081Y-103518404D01*
X166528404Y-103412960D01*
X166464996Y-103318063D01*
X166384293Y-103237360D01*
X166289396Y-103173952D01*
X166183952Y-103130275D01*
X166072013Y-103108009D01*
X165957881Y-103108009D01*
X165845942Y-103130275D01*
X165841945Y-103131931D01*
X165841945Y-103086273D01*
X165947049Y-103086273D01*
X166058988Y-103064007D01*
X166164432Y-103020330D01*
X166259329Y-102956922D01*
X166340032Y-102876219D01*
X166403440Y-102781322D01*
X166447117Y-102675878D01*
X166469383Y-102563939D01*
X166469383Y-102449807D01*
X166447117Y-102337868D01*
X166403440Y-102232424D01*
X166347040Y-102148015D01*
X166370625Y-102124430D01*
X166434033Y-102029533D01*
X166477710Y-101924089D01*
X166499976Y-101812150D01*
X166499976Y-101702803D01*
X166546939Y-101693462D01*
X166652383Y-101649785D01*
X166747280Y-101586377D01*
X166827983Y-101505674D01*
X166891391Y-101410777D01*
X166933923Y-101308098D01*
X167319053Y-101692924D01*
G37*
G04 #@! TD.AperFunction*
D12*
X163111854Y-101455879D02*
X162472434Y-102095300D01*
X161003194Y-102095300D01*
X161021362Y-102085589D01*
X161075509Y-102041151D01*
X161086640Y-102027588D01*
X162123838Y-100990389D01*
X162646366Y-100990389D01*
X163111854Y-101455879D01*
G04 #@! TA.AperFunction,Conductor*
D13*
G36*
X163111854Y-101455879D02*
G01*
X162472434Y-102095300D01*
X161003194Y-102095300D01*
X161021362Y-102085589D01*
X161075509Y-102041151D01*
X161086640Y-102027588D01*
X162123838Y-100990389D01*
X162646366Y-100990389D01*
X163111854Y-101455879D01*
G37*
G04 #@! TD.AperFunction*
D12*
X164198814Y-99860283D02*
X165084747Y-100112270D01*
X165382115Y-100254601D01*
X165320343Y-100316373D01*
X165256935Y-100411270D01*
X165213258Y-100516714D01*
X165190992Y-100628653D01*
X165190992Y-100742785D01*
X165213258Y-100854724D01*
X165256935Y-100960168D01*
X165320343Y-101055065D01*
X165401046Y-101135768D01*
X165495943Y-101199176D01*
X165601387Y-101242853D01*
X165634450Y-101249430D01*
X165551230Y-101305035D01*
X165470527Y-101385738D01*
X165407119Y-101480635D01*
X165395262Y-101509259D01*
X165013510Y-101127507D01*
X165002374Y-101113938D01*
X164948227Y-101069500D01*
X164886451Y-101036480D01*
X164819421Y-101016147D01*
X164767174Y-101011001D01*
X164767166Y-101011001D01*
X164749711Y-101009282D01*
X164732256Y-101011001D01*
X163672766Y-101011001D01*
X163057458Y-100395694D01*
X163046322Y-100382126D01*
X162992175Y-100337688D01*
X162930399Y-100304668D01*
X162863369Y-100284335D01*
X162811122Y-100279189D01*
X162811114Y-100279189D01*
X162793659Y-100277470D01*
X162776204Y-100279189D01*
X161993998Y-100279189D01*
X161976543Y-100277470D01*
X161959088Y-100279189D01*
X161959081Y-100279189D01*
X161913731Y-100283656D01*
X161906833Y-100284335D01*
X161893977Y-100288235D01*
X161839804Y-100304668D01*
X161778028Y-100337688D01*
X161778026Y-100337689D01*
X161778027Y-100337689D01*
X161737444Y-100370994D01*
X161737439Y-100370999D01*
X161723881Y-100382126D01*
X161712754Y-100395684D01*
X160675553Y-101432888D01*
X160333024Y-101432888D01*
X160335834Y-101426105D01*
X160358100Y-101314166D01*
X160358100Y-101293990D01*
X160427981Y-101307890D01*
X160542113Y-101307890D01*
X160654052Y-101285624D01*
X160759496Y-101241947D01*
X160854393Y-101178539D01*
X160935096Y-101097836D01*
X160998504Y-101002939D01*
X161042181Y-100897495D01*
X161064447Y-100785556D01*
X161064447Y-100671424D01*
X161042181Y-100559485D01*
X160998504Y-100454041D01*
X160935096Y-100359144D01*
X160860789Y-100284837D01*
X161467093Y-100028442D01*
X162363750Y-99817760D01*
X163283084Y-99761168D01*
X164198814Y-99860283D01*
G04 #@! TA.AperFunction,Conductor*
D13*
G36*
X164198814Y-99860283D02*
G01*
X165084747Y-100112270D01*
X165382115Y-100254601D01*
X165320343Y-100316373D01*
X165256935Y-100411270D01*
X165213258Y-100516714D01*
X165190992Y-100628653D01*
X165190992Y-100742785D01*
X165213258Y-100854724D01*
X165256935Y-100960168D01*
X165320343Y-101055065D01*
X165401046Y-101135768D01*
X165495943Y-101199176D01*
X165601387Y-101242853D01*
X165634450Y-101249430D01*
X165551230Y-101305035D01*
X165470527Y-101385738D01*
X165407119Y-101480635D01*
X165395262Y-101509259D01*
X165013510Y-101127507D01*
X165002374Y-101113938D01*
X164948227Y-101069500D01*
X164886451Y-101036480D01*
X164819421Y-101016147D01*
X164767174Y-101011001D01*
X164767166Y-101011001D01*
X164749711Y-101009282D01*
X164732256Y-101011001D01*
X163672766Y-101011001D01*
X163057458Y-100395694D01*
X163046322Y-100382126D01*
X162992175Y-100337688D01*
X162930399Y-100304668D01*
X162863369Y-100284335D01*
X162811122Y-100279189D01*
X162811114Y-100279189D01*
X162793659Y-100277470D01*
X162776204Y-100279189D01*
X161993998Y-100279189D01*
X161976543Y-100277470D01*
X161959088Y-100279189D01*
X161959081Y-100279189D01*
X161913731Y-100283656D01*
X161906833Y-100284335D01*
X161893977Y-100288235D01*
X161839804Y-100304668D01*
X161778028Y-100337688D01*
X161778026Y-100337689D01*
X161778027Y-100337689D01*
X161737444Y-100370994D01*
X161737439Y-100370999D01*
X161723881Y-100382126D01*
X161712754Y-100395684D01*
X160675553Y-101432888D01*
X160333024Y-101432888D01*
X160335834Y-101426105D01*
X160358100Y-101314166D01*
X160358100Y-101293990D01*
X160427981Y-101307890D01*
X160542113Y-101307890D01*
X160654052Y-101285624D01*
X160759496Y-101241947D01*
X160854393Y-101178539D01*
X160935096Y-101097836D01*
X160998504Y-101002939D01*
X161042181Y-100897495D01*
X161064447Y-100785556D01*
X161064447Y-100671424D01*
X161042181Y-100559485D01*
X160998504Y-100454041D01*
X160935096Y-100359144D01*
X160860789Y-100284837D01*
X161467093Y-100028442D01*
X162363750Y-99817760D01*
X163283084Y-99761168D01*
X164198814Y-99860283D01*
G37*
G04 #@! TD.AperFunction*
M02*
