M48
INCH,TZ
T1C0.0118
%
G90
G05
T1
X62795Y-42835
X62795Y-42461
X62855Y-40477
X62905Y-39865
X63079Y-40283
X63098Y-42407
X63106Y-41094
X63125Y-42085
X63134Y-40577
X63183Y-39657
X63347Y-41689
X63425Y-43275
X63502Y-40803
X63578Y-42435
X63719Y-43410
X63808Y-42626
X63956Y-42214
X63973Y-39965
X64040Y-42850
X64178Y-42586
X64252Y-42218
X64330Y-42996
X64443Y-42453
X64462Y-41074
X64480Y-39700
X64480Y-40285
X64564Y-40766
X64641Y-42233
X64666Y-42652
X64748Y-40998
X64829Y-43388
X64905Y-40711
X65179Y-41247
X65213Y-41770
X65255Y-43185
X65264Y-39640
X65311Y-40357
X65323Y-40061
X65360Y-40822
X65397Y-42002
X65502Y-42285
X65503Y-39817
X65735Y-40415
X65840Y-42625
X66070Y-42170
T0
M30
